<?xml version="1.0" standalone="no"?><!DOCTYPE svg PUBLIC "-//W3C//DTD SVG 1.1//EN" "http://www.w3.org/Graphics/SVG/1.1/DTD/svg11.dtd"><svg t="1575289778844" class="icon" viewBox="0 0 1024 1024" version="1.1" xmlns="http://www.w3.org/2000/svg" p-id="18540" xmlns:xlink="http://www.w3.org/1999/xlink" width="200" height="200"><defs><style type="text/css"></style></defs><path d="M262.374 39.304c-64.424 0-116.846 51.944-116.846 115.55L141.28 753.958l63.734 0.456 4.25-599.326c0-28.702 23.826-52.05 53.112-52.05h640.532V39.304H262.374z" p-id="18541"></path><path d="M902.904 39.304c-66.772 0-121.096 54.322-121.096 121.096v672.398c0 48.608-39.558 88.166-88.166 88.166s-88.166-39.558-88.166-88.166v-77.544c0-17.602-14.266-31.868-31.868-31.868H31.868C14.266 723.386 0 737.652 0 755.254v77.544c0 83.758 68.142 151.9 151.9 151.9v-63.734c-48.618 0-88.166-39.558-88.166-88.166V787.12h478.008v45.676c0 83.758 68.142 151.9 151.9 151.9 83.758 0 151.9-68.142 151.9-151.9V334.606h146.59c17.602 0 31.868-14.266 31.868-31.868v-142.34c0-66.772-54.322-121.094-121.096-121.094z m57.362 231.568h-114.722V160.398c0-31.634 25.738-57.36 57.36-57.36s57.36 25.728 57.36 57.36v110.474z" p-id="18542"></path><path d="M145.526 920.962h540.67v63.734H145.526zM473.76 216.698h-164.648c-17.602 0-31.868 14.266-31.868 31.868s14.266 31.868 31.868 31.868h164.648c17.602 0 31.868-14.266 31.868-31.868s-14.268-31.868-31.868-31.868zM664.962 344.166H309.112c-17.602 0-31.868 14.266-31.868 31.868s14.266 31.868 31.868 31.868h355.85c17.602 0 31.868-14.266 31.868-31.868s-14.266-31.868-31.868-31.868zM664.962 471.634H309.112c-17.602 0-31.868 14.266-31.868 31.868 0 17.602 14.266 31.868 31.868 31.868h355.85c17.602 0 31.868-14.256 31.868-31.868 0-17.602-14.266-31.868-31.868-31.868zM664.962 599.104H309.112c-17.602 0-31.868 14.266-31.868 31.868s14.266 31.868 31.868 31.868h355.85c17.602 0 31.868-14.266 31.868-31.868s-14.266-31.868-31.868-31.868z" p-id="18543"></path></svg>