<?xml version="1.0" standalone="no"?><!DOCTYPE svg PUBLIC "-//W3C//DTD SVG 1.1//EN" "http://www.w3.org/Graphics/SVG/1.1/DTD/svg11.dtd"><svg t="1575440263799" class="icon" viewBox="0 0 1024 1024" version="1.1" xmlns="http://www.w3.org/2000/svg" p-id="6363" xmlns:xlink="http://www.w3.org/1999/xlink" width="200" height="200"><defs><style type="text/css"></style></defs><path d="M872.064 998.144H151.936a126.4 126.4 0 0 1-126.08-126.08V151.936c0-69.312 56.768-126.08 126.08-126.08h720.128c69.312 0 126.08 56.768 126.08 126.08v720.128c0 69.312-56.768 126.08-126.08 126.08zM151.936 97.92a54.144 54.144 0 0 0-54.016 54.016v720.128c0 29.76 24.32 54.016 54.016 54.016h720.128c29.76 0 54.016-24.32 54.016-54.016V151.936a54.144 54.144 0 0 0-54.016-54.016H151.936z" p-id="6364"></path><path d="M399.488 368H219.456a36.096 36.096 0 0 1-36.032-36.032c0-19.84 16.192-36.032 36.032-36.032h180.032c19.84 0 35.968 16.192 35.968 36.032 0 19.84-16.192 35.968-35.968 35.968z m-45.056 180.032h-135.04A36.096 36.096 0 0 1 183.488 512c0-19.84 16.192-36.032 36.032-36.032h135.04c19.776 0 35.968 16.256 35.968 36.032 0 19.84-16.192 36.032-36.032 36.032z m45.056 180.032H219.456a36.096 36.096 0 0 1-36.032-36.032c0-19.84 16.192-35.968 36.032-35.968h180.032c19.84 0 35.968 16.192 35.968 35.968 0 19.84-16.192 36.032-35.968 36.032z" p-id="6365"></path><path d="M219.456 728.064a36.096 36.096 0 0 1-36.032-36.032V331.968c0-19.84 16.192-36.032 36.032-36.032 19.776 0 35.968 16.192 35.968 36.032v360.064c0 19.84-16.192 36.032-35.968 36.032zM804.544 728.064a37.568 37.568 0 0 1-28.8-14.4L570.496 440v252.032c0 19.84-16.192 36.032-35.968 36.032a36.096 36.096 0 0 1-36.032-36.032V331.968c0-15.36 9.92-29.696 24.32-34.24 14.4-4.48 30.592 0 40.512 12.608l205.248 273.664V331.968c0-19.84 16.192-36.032 35.968-36.032 19.84 0 36.032 16.192 36.032 36.032v360.064c0 15.36-9.92 29.696-24.32 34.24-4.48 0.896-8.064 1.792-11.712 1.792z" p-id="6366"></path></svg>