<?xml version="1.0" standalone="no"?><!DOCTYPE svg PUBLIC "-//W3C//DTD SVG 1.1//EN" "http://www.w3.org/Graphics/SVG/1.1/DTD/svg11.dtd"><svg t="1575288865597" class="icon" viewBox="0 0 1024 1024" version="1.1" xmlns="http://www.w3.org/2000/svg" p-id="48548" xmlns:xlink="http://www.w3.org/1999/xlink" width="200" height="200"><defs><style type="text/css"></style></defs><path d="M921.6 972.8H102.4c-28.2624 0-51.2-22.9376-51.2-51.2V102.4c0-28.2624 22.9376-51.2 51.2-51.2h819.2c28.2624 0 51.2 22.9376 51.2 51.2v819.2c0 28.2624-22.9376 51.2-51.2 51.2z" fill="#000000" p-id="48549" data-spm-anchor-id="a313x.7781069.0.i46" class="selected"></path><path d="M467.968 697.856H262.0416v-371.712h197.5296v49.4592H319.5904v109.4656h129.8432v49.152H319.5904v114.2784H467.968v49.3568zM761.9584 697.856h-56.1152V547.84c0-50.9952-18.5344-76.5952-55.7056-76.5952-18.7392 0-34.2016 7.0656-46.4896 21.1968s-18.3296 32.1536-18.3296 53.8624v151.4496h-56.4224V432.4352h56.4224v43.4176h1.2288c19.6608-33.0752 48.4352-49.664 86.4256-49.664 59.392 0 89.088 36.4544 89.088 109.4656v162.2016z" fill="#FFFFFF" p-id="48550"></path></svg>