<?xml version="1.0" standalone="no"?><!DOCTYPE svg PUBLIC "-//W3C//DTD SVG 1.1//EN" "http://www.w3.org/Graphics/SVG/1.1/DTD/svg11.dtd"><svg t="1579173701474" class="icon" viewBox="0 0 1024 1024" version="1.1" xmlns="http://www.w3.org/2000/svg" p-id="12154" xmlns:xlink="http://www.w3.org/1999/xlink" width="200" height="200"><defs><style type="text/css"></style></defs><path d="M968.101647 498.085647c-26.383059-248.018824-141.372235-336.384-240.248471-336.384-39.574588 0-66.620235 16.896-90.503529 31.834353-28.852706 17.980235-58.639059 36.562824-125.831529 36.562824-67.222588 0-97.039059-18.612706-125.861647-36.592942-23.853176-14.938353-50.868706-31.834353-90.473412-31.834353-98.846118 0-213.865412 88.365176-240.248471 336.384-18.793412 176.850824-7.860706 278.136471 35.448471 328.493177a100.201412 100.201412 0 0 0 78.034823 35.719529c70.264471 0 110.471529-43.881412 149.654589-86.618353 12.890353-14.004706 26.172235-28.491294 41.261176-42.496 31.412706-29.153882 95.834353-36.020706 106.646588-36.201411 4.487529 0.120471 46.049882-0.060235 72.673883-0.210824l21.353411-0.090353c38.640941 0 71.047529 6.204235 103.664942 36.502588 15.088941 14.004706 28.370824 28.491294 41.562353 42.827294 38.881882 42.405647 79.088941 86.287059 149.353411 86.287059 30.900706 0 57.886118-12.348235 78.034824-35.719529 43.309176-50.296471 54.272-151.612235 35.478588-328.463059z m-81.106823 289.189647a40.056471 40.056471 0 0 1-32.376471 14.787765c-41.743059 0-65.897412-24.124235-105.291294-67.132235a773.240471 773.240471 0 0 0-44.604235-45.899295c-49.904941-46.351059-101.135059-52.585412-144.685177-52.585411l-21.654588 0.090353c-25.750588 0.120471-65.897412 0.301176-70.836706 0.240941-13.854118-0.692706-100.683294 7.228235-149.202824 52.254117-16.865882 15.661176-30.960941 31.021176-44.965647 46.290824-39.062588 42.646588-63.216941 66.740706-104.929882 66.740706a40.056471 40.056471 0 0 1-32.376471-14.787765c-30.268235-35.177412-37.376-130.349176-21.202823-282.804706 22.136471-208.293647 107.700706-282.533647 180.34447-282.533647 22.287059 0 38.279529 9.999059 58.548706 22.648471 32.647529 20.389647 73.306353 45.748706 157.756236 45.748706 84.419765 0 125.018353-25.328941 157.786353-45.778824 20.239059-12.649412 36.231529-22.648471 58.518588-22.64847 72.643765 0 158.208 74.209882 180.34447 282.503529 16.203294 152.545882 9.095529 247.687529-21.172705 282.864941z" p-id="12155"></path><path d="M722.341647 373.458824m-43.821176 0a43.821176 43.821176 0 1 0 87.642353 0 43.821176 43.821176 0 1 0-87.642353 0Z" p-id="12156"></path><path d="M724.178824 583.439059m-43.821177 0a43.821176 43.821176 0 1 0 87.642353 0 43.821176 43.821176 0 1 0-87.642353 0Z" p-id="12157"></path><path d="M618.767059 480.737882m-43.821177 0a43.821176 43.821176 0 1 0 87.642353 0 43.821176 43.821176 0 1 0-87.642353 0Z" p-id="12158"></path><path d="M826.88 478.027294m-43.821176 0a43.821176 43.821176 0 1 0 87.642352 0 43.821176 43.821176 0 1 0-87.642352 0Z" p-id="12159"></path><path d="M391.529412 419.147294h-60.235294v-60.235294a30.117647 30.117647 0 0 0-60.235294 0v60.235294H210.823529a30.117647 30.117647 0 0 0 0 60.235294h60.235295v60.235294a30.117647 30.117647 0 0 0 60.235294 0v-60.235294h60.235294a30.117647 30.117647 0 0 0 0-60.235294z" p-id="12160"></path></svg>