<?xml version="1.0" standalone="no"?><!DOCTYPE svg PUBLIC "-//W3C//DTD SVG 1.1//EN" "http://www.w3.org/Graphics/SVG/1.1/DTD/svg11.dtd"><svg t="1575459924689" class="icon" viewBox="0 0 1024 1024" version="1.1" xmlns="http://www.w3.org/2000/svg" p-id="15338" xmlns:xlink="http://www.w3.org/1999/xlink" width="200" height="200"><defs><style type="text/css"></style></defs><path d="M844.8 0H179.2C83.2 0 0 83.2 0 179.2v659.2C0 940.8 83.2 1024 179.2 1024h659.2c102.4 0 179.2-83.2 179.2-179.2V179.2C1024 83.2 940.8 0 844.8 0z m108.8 844.8c0 64-51.2 108.8-108.8 108.8H179.2c-64 0-108.8-51.2-108.8-108.8V179.2c0-64 51.2-108.8 108.8-108.8h659.2c64 0 108.8 51.2 108.8 108.8v665.6z" p-id="15339"></path><path d="M364.8 243.2H204.8v416h57.6V492.8h102.4c44.8 0 76.8-12.8 102.4-32 25.6-25.6 38.4-51.2 38.4-89.6 0-38.4-12.8-70.4-38.4-89.6-25.6-25.6-57.6-38.4-102.4-38.4z m64 185.6c-12.8 12.8-38.4 19.2-64 19.2H262.4V288h102.4c25.6 0 51.2 6.4 64 25.6s19.2 32 19.2 57.6-6.4 38.4-19.2 57.6zM678.4 582.4l-12.8-38.4-64-192h-64l115.2 300.8-12.8 32-19.2 38.4c-6.4 12.8-19.2 12.8-32 12.8h-25.6l-6.4 44.8h38.4c25.6 0 44.8-6.4 57.6-25.6 12.8-12.8 25.6-32 32-51.2l128-358.4h-64l-70.4 236.8z" p-id="15340"></path></svg>