<?xml version="1.0" standalone="no"?><!DOCTYPE svg PUBLIC "-//W3C//DTD SVG 1.1//EN" "http://www.w3.org/Graphics/SVG/1.1/DTD/svg11.dtd"><svg t="1575465436824" class="icon" viewBox="0 0 1024 1024" version="1.1" xmlns="http://www.w3.org/2000/svg" p-id="3096" xmlns:xlink="http://www.w3.org/1999/xlink" width="200" height="200"><defs><style type="text/css"></style></defs><path d="M389.3 367.3l-97 200.8c-4.9 10.2-8.7 19.8-11.3 28.9h-1.1c0.9-8.9 0.6-18.3-0.7-28.2l-26.1-201.5h-65.5l47.5 285h68.6l149.2-285h-63.6zM429.8 652.4h55.4l33.6-190.5h-55.4zM507.4 371.6c-9.4 0-17.6 2.7-24.6 8-7 5.4-11.2 12.3-12.7 20.8-1.5 8.3 0.3 15.3 5.5 20.9 5.1 5.6 12.3 8.4 21.6 8.4 9.4 0 17.6-2.8 24.7-8.4 7-5.5 11.3-12.5 12.8-20.9 1.5-8.3-0.3-15.1-5.3-20.6s-12.4-8.2-22-8.2zM806.3 457.4c-28 0-51.5 12-70.4 36-5.7-24-21.9-36-48.6-36-12.2 0-24.3 3-36.4 9s-22.4 14.5-31 25.4h-0.7l5.3-29.8h-55.6l-33.6 190.5h55.6l18.7-106.2c2.5-13.9 7.6-25.1 15.3-33.5 7.8-8.5 16.9-12.7 27.3-12.7 21 0 29 14.2 24 42.4l-19.4 110h55.4L731 545.7c2.2-12.8 7.4-23.6 15.5-32.4 8.1-8.9 17.1-13.3 27-13.3 21.2 0 29.2 14.5 24.1 43.7l-19.2 108.7h55.4l21.1-118.2c9.1-51.2-7.2-76.8-48.6-76.8z" p-id="3097"></path><path d="M987.7 455.8L566.8 34.9c-31.3-31.4-82.4-31.4-113.8 0l-420.9 421C0.7 487.2 0.7 538.3 32.1 569.7L453 990.5c15.2 15.2 35.4 23.6 56.9 23.6 21.6 0 41.8-8.3 57-23.5l420.8-421c15.2-15.2 23.6-35.4 23.6-56.9s-8.4-41.7-23.6-56.9zM963.1 545L542.2 965.9c-8.6 8.6-20 13.3-32.2 13.3s-23.6-4.7-32.2-13.3L56.9 545c-17.7-17.8-17.7-46.7 0-64.4L477.7 59.7c8.9-8.9 20.5-13.3 32.2-13.3s23.4 4.4 32.2 13.3l421 420.9c8.6 8.6 13.3 20 13.3 32.2s-4.7 23.6-13.3 32.2z" p-id="3098"></path></svg>