<?xml version="1.0" standalone="no"?><!DOCTYPE svg PUBLIC "-//W3C//DTD SVG 1.1//EN" "http://www.w3.org/Graphics/SVG/1.1/DTD/svg11.dtd"><svg t="1579173554384" class="icon" viewBox="0 0 1024 1024" version="1.1" xmlns="http://www.w3.org/2000/svg" p-id="9026" xmlns:xlink="http://www.w3.org/1999/xlink" width="200" height="200"><defs><style type="text/css"></style></defs><path d="M1015.808 386.56c-10.24-31.744-36.864-54.784-69.12-59.904l-232.448-35.328c-7.68-1.536-13.824-6.656-17.408-13.824l-103.936-220.16c-15.36-31.744-44.544-50.688-78.336-50.688-33.792 0-64 19.456-78.336 50.688l-104.448 220.16c-3.584 7.168-10.24 12.288-17.408 13.824l-232.96 35.328c-32.256 5.12-58.368 28.16-69.12 59.904-10.752 32.768-2.56 68.096 20.992 92.672l168.96 170.496c5.632 6.656 8.704 15.36 7.168 23.552L168.96 915.968c-4.096 27.136 3.072 54.272 19.968 73.728 16.384 19.968 40.448 31.232 65.536 31.232 13.824 0 27.648-3.584 40.96-10.752l208.384-114.176c3.072-2.048 6.656-2.56 10.24-2.56s7.168 1.024 10.752 3.072l207.872 114.176c13.312 7.168 26.624 10.752 40.96 10.752 25.088 0 49.152-10.752 66.56-30.208 16.896-19.968 24.064-47.104 19.968-73.728l-39.936-242.176c-1.536-8.704 1.536-17.92 7.168-24.064l168.448-171.52c23.04-25.088 30.72-60.416 19.968-93.184z m-66.56 48.128l-168.96 172.032c-20.48 20.48-29.696 49.664-24.576 78.336l39.936 242.176c1.536 7.68-0.512 15.36-5.632 21.504-4.096 5.632-10.24 8.704-16.896 8.704-4.096 0-7.168-1.024-10.752-3.072l-207.872-114.176c-12.288-7.168-26.624-10.752-40.96-10.752s-28.16 3.584-40.448 10.752l-208.384 114.176c-3.584 2.048-6.656 3.072-10.24 3.072-6.144 0-12.288-3.072-16.896-8.704-5.12-6.144-7.168-14.336-5.632-22.528l39.936-242.176c4.096-28.672-5.12-58.368-24.576-78.848l-168.448-172.032c-10.24-9.216-8.704-22.016-6.144-28.16 2.048-6.656 8.192-14.336 18.432-16.384l232.96-35.328c28.672-4.608 53.248-23.04 65.536-49.152l104.448-220.16c6.656-12.8 17.408-13.824 20.48-13.824 9.216 0 16.384 5.12 20.48 13.824l103.936 220.672c12.288 26.624 36.864 45.056 65.536 49.664l232.448 35.328c12.8 1.536 17.92 12.8 18.944 16.384l0.512 1.536c0.512 5.12 3.072 16.896-7.168 27.136z" p-id="9027"></path><path d="M369.152 563.2c0 8.704 3.072 16.384 9.216 22.528l86.016 86.016c6.144 6.144 13.824 9.216 22.528 9.216 8.192 0 16.384-3.584 22.528-9.216l172.032-172.032c6.144-6.144 9.216-13.824 9.216-22.528 0-8.704-3.072-16.384-9.216-22.528-6.144-6.144-13.824-9.216-22.528-9.216-8.704 0-16.384 3.072-22.528 9.216L486.912 604.16l-63.488-63.488c-6.144-6.144-14.336-9.216-22.528-9.216-8.192 0-16.384 3.072-22.528 9.216-5.632 6.144-9.216 14.336-9.216 22.528z" p-id="9028"></path></svg>