<?xml version="1.0" standalone="no"?><!DOCTYPE svg PUBLIC "-//W3C//DTD SVG 1.1//EN" "http://www.w3.org/Graphics/SVG/1.1/DTD/svg11.dtd"><svg t="1575289276397" class="icon" viewBox="0 0 1024 1024" version="1.1" xmlns="http://www.w3.org/2000/svg" p-id="54889" xmlns:xlink="http://www.w3.org/1999/xlink" width="200" height="200"><defs><style type="text/css"></style></defs><path d="M936.228571 502.247619l-109.714285-104.838095c2.438095-2.438095 2.438095-7.314286 2.438095-9.752381V202.361905c0-14.628571-9.752381-24.380952-24.380952-24.380953h-190.171429c-7.314286 0-12.190476 2.438095-17.066667 7.314286L533.942857 121.904762c-12.190476-12.190476-31.695238-12.190476-43.885714 0L87.771429 502.247619c-9.752381 9.752381-12.190476 24.380952-7.314286 36.571429s17.066667 19.504762 31.695238 19.504762h75.580952v312.07619c0 21.942857 17.066667 39.009524 39.009524 39.009524h190.171429c21.942857 0 39.009524-17.066667 39.009524-39.009524v-192.609524h121.904761v192.609524c0 21.942857 17.066667 39.009524 39.009524 39.009524h190.171429c21.942857 0 39.009524-17.066667 39.009524-39.009524V558.32381h75.580952c14.628571 0 24.380952-7.314286 31.695238-19.504762-2.438095-12.190476-4.87619-26.819048-17.066667-36.571429zM782.628571 226.742857v126.780953l-136.533333-126.780953h136.533333z m34.133334 282.819048c-14.628571 0-24.380952 9.752381-24.380953 24.380952v326.704762h-170.666666v-195.047619c0-21.942857-17.066667-39.009524-39.009524-39.009524h-141.409524c-21.942857 0-39.009524 17.066667-39.009524 39.009524v192.609524h-170.666666V531.504762c0-14.628571-9.752381-24.380952-24.380953-24.380952H148.72381L512 168.228571l363.27619 341.333334h-58.514285z" p-id="54890"></path></svg>