<?xml version="1.0" standalone="no"?><!DOCTYPE svg PUBLIC "-//W3C//DTD SVG 1.1//EN" "http://www.w3.org/Graphics/SVG/1.1/DTD/svg11.dtd"><svg t="1575279651883" class="icon" viewBox="0 0 1024 1024" version="1.1" xmlns="http://www.w3.org/2000/svg" p-id="11782" xmlns:xlink="http://www.w3.org/1999/xlink" width="200" height="200"><defs><style type="text/css"></style></defs><path d="M335.722 904.94c337.13-109.217 588.047-219.146 589.375-257.428 1.07-31-220.046 12.323-182.245 1.49 115.198-33.025 200.597-47.279 214.715-18.426 24.47 50.015-147.642 157.275-384.429 239.564-236.793 82.289-462.13 115.233-486.6 65.217C69.026 899.561 187.728 831.756 315.398 783c23.697-9.05-195.225 107.592-193.274 130.543 2.819 33.175 176.508 3.415 213.598-8.603z" fill="" p-id="11783"></path><path d="M976.842 257.306c-42.245-104.434-135.427-155.635-135.427-155.635s-40.735-11.097-74.492-6.769c-26.732 3.429-38.824 20.235-54.175 33.832-5.466 4.85 4.478 41.188 27.091 47.374 11.286 3.082 20.02-14.172 27.084-13.535 8.807 0.786 15.012 11.862 20.317 6.768 31.094-29.882 32.89-26.691 60.943 0 15.398 14.64 14.409 61.525 20.316 87.965 5.887 26.367 25.458 45.836 27.084 54.141 5.996 30.587-37.374 3.889-74.484 13.528-27.518 7.154-44.414 48.743-67.717 47.374-80.095-4.708-102.715 96.042-155.752 60.902-9.863-6.544-38.12-29.887-42.31-52.746 0.073-4.062-2.13-21.267-2.047-24.239 0.276-9.927 17.273-17.755 17.273-17.755s7.385 5.514 13.543-6.768c6.246-12.465 12.505-41.971 3.21-51.259-25.823-26.686-5.856-33.834-9.838-56.295-1.209-6.818-4.862-17.288-13.054-25.74-13.37-13.792-31.145-18.704-46.158-20.054-15.433-3.078-52.228-7.385-74.135 15.23-35.194 36.331 13.352 53.247-20.323 88.068-7.98 13.536 0.522 34.942 6.774 47.42 6.159 12.297 13.549 6.775 13.549 6.775s8.96 11 9.032 23.468c0.037 6.63-0.342 24.02 0.42 28.86-4.087 27.164-26.68 35.97-36.55 42.514-53.057 35.18-75.683-65.685-155.811-60.97-23.31 1.369-40.213-40.26-67.744-47.42-37.13-9.654-80.514 17.077-74.518-13.55 1.626-8.304 21.204-27.801 27.098-54.194 5.908-26.474 4.925-73.408 20.323-88.068 28.066-26.719 29.862-29.916 60.97 0 5.304 5.1 11.516-5.983 20.322-6.775 7.066-0.636 15.805 16.638 27.099 13.549 22.62-6.192 32.571-42.57 27.098-47.421-15.35-13.616-27.45-30.437-54.196-33.872-33.77-4.336-74.518 6.774-74.518 6.774S79.916 150.038 37.651 254.594c-15.304 37.85-29.178 54.521-27.099 74.519 2.771 26.664 27.586 54.019 54.196 94.842 41.425 63.544 101.616 67.744 101.616 67.744s39.644 5.65 60.97 40.646c11.029 18.094 14.68 55.686 40.646 94.842 23.352 35.207 74.634 59.46 88.068 94.843 23.758 62.575 20.323 135.488 20.323 135.488l142.263-47.42 0.01-0.963 119.682-37.638s-3.488 15.236 20.255-47.271c13.427-35.342 64.69-59.568 88.027-94.734 25.96-39.116 29.612-76.666 40.634-94.74 21.318-34.957 60.943-40.6 60.943-40.6s60.17-4.2 101.575-67.67c26.603-40.782 51.405-68.103 54.175-94.74 2.071-19.976-11.797-36.622-27.093-74.436zM515.498 933.757c93.557-25.691 197.876-59.108 294.434-119.177 109.237-58.43 179.189-125.59 170.982-125.068 0 0 9.398 25.99-15.764 51.665-55.363 56.487-219.826 149.954-381.91 193.242-285.431 76.226-450.146 52.972-450.146 52.972s165.975 5.795 382.404-53.634z" fill="" p-id="11784"></path></svg>