<?xml version="1.0" standalone="no"?><!DOCTYPE svg PUBLIC "-//W3C//DTD SVG 1.1//EN" "http://www.w3.org/Graphics/SVG/1.1/DTD/svg11.dtd"><svg t="1575441336498" class="icon" viewBox="0 0 1024 1024" version="1.1" xmlns="http://www.w3.org/2000/svg" p-id="29174" xmlns:xlink="http://www.w3.org/1999/xlink" width="200" height="200"><defs><style type="text/css"></style></defs><path d="M898.644991 264.767176l-12.363585 0c-7.622608 0-14.917758 1.387603-21.659299 3.910053l0-10.93812c0-45.450145-36.976146-82.426291-82.424244-82.426291l-2.061962 0c-45.448098 0-82.424244 36.976146-82.424244 82.426291l0 173.492356-368.860952 0L328.850703 257.738086c0-45.450145-36.975123-82.426291-82.424244-82.426291l-2.061962 0c-45.450145 0-82.426291 36.976146-82.426291 82.426291l0 10.920724c-6.728238-2.511193-14.008039-3.892657-21.61325-3.892657l-12.363585 0c-34.142611 0-61.819974 27.678386-61.819974 61.819974l0 330.868663c0 34.142611 27.677363 61.819974 61.819974 61.819974l12.363585 0c7.605212 0 14.885012-1.381463 21.61325-3.892657l0 15.410991c0 45.450145 36.976146 82.426291 82.426291 82.426291l2.061962 0c45.450145 0 82.424244-36.976146 82.424244-82.426291L328.850703 558.991244l368.858906 0 0 171.801854c0 45.450145 36.976146 82.426291 82.426291 82.426291l2.060939 0c45.448098 0 82.426291-36.976146 82.426291-82.426291L864.62313 715.365734c6.740518 2.52245 14.037714 3.910053 21.658276 3.910053l12.363585 0c34.143635 0 61.819974-27.678386 61.819974-61.819974L960.464965 326.586127C960.463941 292.444539 932.786579 264.767176 898.644991 264.767176L898.644991 264.767176zM160.930249 657.455813c0 11.380188-9.227152 20.606317-20.60734 20.606317l-12.363585 0c-11.380188 0-20.606317-9.226129-20.606317-20.606317L107.353007 326.586127c0-11.380188 9.226129-20.60734 20.606317-20.60734l12.363585 0c11.380188 0 20.60734 9.227152 20.60734 20.60734L160.930249 657.455813 160.930249 657.455813zM246.424412 772.006755l-2.061962 0c-22.724561 0-41.212634-18.48705-41.212634-41.212634L203.149816 257.738086c0-22.724561 18.489096-41.212634 41.212634-41.212634l2.061962 0c22.722514 0 41.212634 18.489096 41.212634 41.212634l0 473.056036C287.638069 753.518682 269.148973 772.006755 246.424412 772.006755L246.424412 772.006755zM696.700629 517.77861 328.84968 517.77861l0-45.334511 367.849926 0 0 45.334511L696.700629 517.77861 696.700629 517.77861zM823.407426 730.793098c0 22.724561-18.48705 41.212634-41.212634 41.212634l-2.060939 0c-22.725584 0-41.21468-18.48705-41.21468-41.212634L738.919173 257.738086c0-22.724561 18.48705-41.212634 41.21468-41.212634l2.060939 0c22.725584 0 41.212634 18.489096 41.212634 41.212634L823.407426 730.793098 823.407426 730.793098zM919.252331 657.455813c0 11.380188-9.227152 20.606317-20.60734 20.606317l-12.363585 0c-11.380188 0-20.60734-9.226129-20.60734-20.606317L865.674065 326.586127c0-11.380188 9.227152-20.60734 20.60734-20.60734l12.363585 0c11.380188 0 20.60734 9.227152 20.60734 20.60734L919.252331 657.455813 919.252331 657.455813z" p-id="29175"></path></svg>