<?xml version="1.0" standalone="no"?><!DOCTYPE svg PUBLIC "-//W3C//DTD SVG 1.1//EN" "http://www.w3.org/Graphics/SVG/1.1/DTD/svg11.dtd"><svg t="1575279618909" class="icon" viewBox="0 0 1603 1024" version="1.1" xmlns="http://www.w3.org/2000/svg" p-id="11654" xmlns:xlink="http://www.w3.org/1999/xlink" width="313.0859375" height="200"><defs><style type="text/css"></style></defs><path d="M522.571341 583.790447c-13.09584-32.187365-22.247149-69.897072-27.769492-112.024653-8.993529-67.845917-8.046841-140.740832-1.26225-210.00678 0.946687-10.097997 2.051156-19.407088 3.155624-27.61171l24.771649-11.044685 36.605239 8.677967 71.159322 67.845916c9.782435 9.309091 24.92943 9.940216 35.50077 1.577812l126.067181-101.13775c11.044684-8.835747 13.411402-24.92943 5.206779-36.447458L725.793529 64.059168c-4.891217-10.255778-14.673652-22.247149-30.767335-33.291834C667.887827 12.149153 629.546995 1.577812 578.110324 1.577812c-50.016641 0-99.086595 11.360247-145.000925 30.451772-27.61171 11.202465-48.123267 22.720493-60.114638 30.767334-2.997843 2.051156-5.522342 4.575655-7.573498 7.731279-1.577812 2.366718-4.417874 6.942373-8.204622 13.253621-6.311248 10.571341-13.253621 22.720493-20.827119 36.76302-23.351618 43.547612-44.178737 88.199692-62.481356 134.114022-75.419414 187.917411-109.973498 387.037288-80.941756 584.737134 1.104468 7.100154 4.891217 13.569183 10.729122 17.829276 217.89584 158.570108 438.158398 164.250231 635.069337 78.259476 24.771649-10.729122 48.912173-23.193837 72.106009-37.078583 4.575655-2.840062 8.835747-5.364561 12.306934-7.731279 25.876117 14.358089 50.647766 30.609553 73.841602 48.912173 29.031741 23.036055 51.910015 46.861017 66.110324 70.370416 7.88906 12.306934 24.140524 16.093683 36.605239 8.520185 12.464715-7.573498 16.724807-23.66718 9.466872-36.289676-17.987057-29.978428-45.125424-58.221263-78.890601-84.886287-21.142681-16.567026-43.389831-31.714022-66.583667-45.440986-10.097997-5.995686-20.353775-11.518028-30.767334-16.882589-9.15131-4.417874-19.880431-3.471186-28.085054 2.682281-3.628968 2.68228-11.202465 7.88906-22.404931 14.673651-19.091525 11.518028-41.023112 23.036055-65.794761 33.765178-177.977196 77.628351-374.888136 73.841602-572.745763-65.952543C219.315871 636.804931 252.449923 450.780894 323.135901 274.539291c17.513713-43.863174 37.551926-86.779661 59.956857-128.591679 7.573498-14.042527 15.462558-27.769492 23.66718-41.338675 14.831433-8.677966 30.293991-16.409245 46.229893-23.036056 39.918644-16.409245 82.046225-26.349461 124.331587-26.34946 41.023112 0 68.950385 7.731279 86.306317 19.72265 8.520185 5.837904 11.991371 10.571341 12.464715 11.675809 0.788906 2.208937 1.893374 4.260092 3.155624 5.995685l57.116795 81.099538L648.48074 244.2453 589.943914 187.75963c-3.471186-3.313405-7.731279-5.680123-12.464715-6.784591l-52.54114-12.464715c-5.680123-1.420031-11.83359-0.788906-17.198151 1.577812L461.036672 190.915254c-8.362404 3.628968-14.200308 11.360247-15.620339 20.195994-0.315562 2.366718-0.946687 6.469029-1.735593 12.464715-1.26225 9.624653-2.524499 20.669337-3.786749 32.81849-7.257935 73.052696-8.204622 149.892142 1.420031 222.471495 8.046841 60.587982 23.036055 113.760247 46.387673 157.62342 3.628968 6.942373 10.097997 11.83359 17.671495 13.569184 7.573498 1.735593 15.620339 0.157781 21.931587-4.417874 104.451156-75.103852 183.026194-77.943914 280.377195-0.788906 9.15131 7.257935 21.773806 7.731279 31.556241 1.420031 75.261633-49.385516 154.94114-67.845917 231.780585-61.376888 29.820647 2.524499 57.905701 8.835747 81.4151 17.671495 18.302619 6.942373 32.187365 14.831433 36.447458 19.407088 10.255778 10.571341 27.138367 11.044684 37.867488 0.946687 10.729122-10.097997 11.360247-26.980586 1.26225-37.867489-23.193837-24.613867-85.675193-47.965485-152.574422-53.645608-82.835131-6.942373-168.668105 11.202465-249.609862 59.799075-102.715562-74.78829-196.91094-74.472727-303.255469-7.415716z m0 0" p-id="11655"></path><path d="M1205.448382 222.944838h-145.158706v-145.158705h-69.423728v145.158705h-145.158706v69.423729h145.158706v145.158706h69.423728v-145.158706h145.158706z" p-id="11656"></path></svg>