<?xml version="1.0" standalone="no"?><!DOCTYPE svg PUBLIC "-//W3C//DTD SVG 1.1//EN" "http://www.w3.org/Graphics/SVG/1.1/DTD/svg11.dtd"><svg t="1575440879248" class="icon" viewBox="0 0 1024 1024" version="1.1" xmlns="http://www.w3.org/2000/svg" p-id="18000" xmlns:xlink="http://www.w3.org/1999/xlink" width="200" height="200"><defs><style type="text/css"></style></defs><path d="M505.6 684.8c-121.6 0-217.6-96-217.6-217.6s96-224 217.6-224 217.6 96 217.6 217.6-96 224-217.6 224z m0-384c-89.6 0-166.4 76.8-166.4 166.4S416 633.6 505.6 633.6c89.6 0 166.4-76.8 166.4-166.4s-76.8-166.4-166.4-166.4z" fill="#333333" p-id="18001"></path><path d="M851.2 966.4H153.6v-25.6c0-115.2 57.6-224 153.6-288 12.8-6.4 32-6.4 38.4 6.4 6.4 12.8 6.4 32-6.4 38.4-70.4 51.2-121.6 128-128 217.6H800C787.2 800 710.4 704 601.6 665.6c-19.2-6.4-25.6-25.6-19.2-38.4 6.4-12.8 19.2-19.2 32-19.2 140.8 51.2 236.8 179.2 236.8 332.8v25.6z m-544-601.6c-6.4 0-12.8 0-12.8-6.4l-128-83.2c-6.4-6.4-12.8-12.8-12.8-25.6s6.4-19.2 12.8-25.6l320-172.8c6.4-6.4 19.2-6.4 25.6 0L832 224c6.4 6.4 12.8 12.8 12.8 25.6s-6.4 19.2-12.8 25.6l-128 83.2c-12.8 6.4-32 6.4-38.4-6.4-6.4-12.8-6.4-32 6.4-38.4l96-57.6-262.4-140.8L236.8 256l89.6 57.6c12.8 6.4 12.8 25.6 6.4 38.4-6.4 6.4-12.8 12.8-25.6 12.8z" fill="#333333" p-id="18002"></path><path d="M825.6 556.8c-12.8 0-25.6-12.8-25.6-25.6V249.6c0-12.8 12.8-25.6 25.6-25.6s25.6 12.8 25.6 25.6v275.2c0 19.2-12.8 32-25.6 32z" fill="#333333" p-id="18003"></path><path d="M780.8 531.2a44.8 44.8 0 1 0 89.6 0 44.8 44.8 0 1 0-89.6 0z" fill="#333333" p-id="18004"></path></svg>