<?xml version="1.0" standalone="no"?><!DOCTYPE svg PUBLIC "-//W3C//DTD SVG 1.1//EN" "http://www.w3.org/Graphics/SVG/1.1/DTD/svg11.dtd"><svg t="1575278124645" class="icon" viewBox="0 0 1024 1024" version="1.1" xmlns="http://www.w3.org/2000/svg" p-id="5207" xmlns:xlink="http://www.w3.org/1999/xlink" width="200" height="200"><defs><style type="text/css"></style></defs><path d="M512 512m-448 0a448 448 0 1 0 896 0 448 448 0 1 0-896 0Z" fill="#2c2c2c" p-id="5208" data-spm-anchor-id="a313x.7781069.0.i5" class="selected"></path><path d="M798.5 400.1c-6-90-74-183-220-188s-168 12-183 26 0 69-4 78-29 26-29 53 22.6 43.5 10 59.7c-20 25.7-46.7 31.7-60.7 56-13.2 22.9-2.3 37.3 22.7 37.3s8.6 23.4 8.6 23.4-12.2 12.2-9.6 19.6c2.3 6.7 7.5 15.9 27.5 15.9s58.5-0.1 61 10.8c4.3 19.3-30.6 23.8-67.8 33-12.2 3-12.6 13.8-9.3 21 3.2 7.2 9 5.3 11.7 17.3 2.9 13-9 30.7-1.3 44.3 11.8 21 82.3-5.3 101.3 6.7s26 92 25 98 117-31 231-38c0 0-7-115 9-142s82.9-142 76.9-232zM273.5 583.4h-61.3c-6 0-11 5-11 11s4.9 11 11 11h61.3c6.1 0 11-5 11-11s-5-11-11-11zM267.5 624.3l-37.8 24.3c-5.1 3.3-6.6 10.1-3.3 15.2s10.1 6.6 15.2 3.3l37.8-24.3c5.1-3.3 6.6-10.1 3.3-15.2-3.2-5-10.1-6.5-15.2-3.3zM229.7 540.2l37.8 24.3c5.1 3.3 11.9 1.8 15.2-3.3 3.3-5.1 1.8-11.9-3.3-15.2l-37.8-24.3c-5.1-3.3-11.9-1.8-15.2 3.3-3.3 5.1-1.8 11.9 3.3 15.2z" fill="#FFFFFF" p-id="5209"></path></svg>