<?xml version="1.0" standalone="no"?><!DOCTYPE svg PUBLIC "-//W3C//DTD SVG 1.1//EN" "http://www.w3.org/Graphics/SVG/1.1/DTD/svg11.dtd"><svg t="1575440373816" class="icon" viewBox="0 0 1024 1024" version="1.1" xmlns="http://www.w3.org/2000/svg" p-id="11324" xmlns:xlink="http://www.w3.org/1999/xlink" width="200" height="200"><defs><style type="text/css"></style></defs><path d="M512.512 708.096c99.84 0 181.248-82.944 181.248-185.344l-0.512-337.408c0-102.4-80.896-185.344-181.248-185.344-99.84 0-180.736 82.944-180.736 185.344v337.408c0 102.4 80.896 185.344 181.248 185.344z m-0.512-665.6c77.312 0 139.776 64 139.776 142.848l0.512 337.408c0 78.848-62.464 142.848-139.776 142.848-76.8 0-139.776-64-139.776-142.848l-0.512-336.896c0-79.36 62.976-143.36 139.776-143.36z m279.552 287.744c-12.8 0-23.04 10.752-23.04 23.552v169.984c0 144.896-115.2 263.168-256.512 263.168s-256.512-117.76-256.512-263.168V354.304c0-13.312-10.24-23.552-23.04-23.552s-23.04 10.752-23.04 23.552v169.984c0 163.328 123.392 296.96 280.064 309.248v143.36H347.136c-12.8 0-23.04 10.752-23.04 23.552 0 6.144 2.56 12.288 6.656 16.384 4.096 4.608 10.24 7.168 16.384 7.168h329.216c12.8 0 23.04-10.752 23.04-23.552 0-12.8-10.24-23.552-23.04-23.552h-141.824v-143.36c156.16-12.288 280.064-145.92 280.064-309.248V354.304c0.512-13.312-10.24-24.064-23.04-24.064z" p-id="11325"></path></svg>