<?xml version="1.0" standalone="no"?><!DOCTYPE svg PUBLIC "-//W3C//DTD SVG 1.1//EN" "http://www.w3.org/Graphics/SVG/1.1/DTD/svg11.dtd"><svg t="1575278239928" class="icon" viewBox="0 0 1024 1024" version="1.1" xmlns="http://www.w3.org/2000/svg" p-id="5814" xmlns:xlink="http://www.w3.org/1999/xlink" width="200" height="200"><defs><style type="text/css"></style></defs><path d="M512.1 682.1h-0.2c105.2 0 191.1-89.2 191.1-198.3V200.3C703 91.2 617.1 2 511.9 2h0.2C406.9 2 321 91.2 321 200.3v283.4c0 109.1 85.9 198.4 191.1 198.4z" p-id="5815"></path><path d="M724.5 937H554V828.4c177.5-20.5 298-171 298-380.1 0-23.5-19-42.5-42.5-42.5s-42.5 19-42.5 42.5c0 148.1-78.8 297.5-255 297.5S257 596.4 257 448.3c0-23.5-19-42.5-42.5-42.5s-42.5 19-42.5 42.5c0 208.7 120.1 359.1 297 380V937H299.5c-23.5 0-42.5 19-42.5 42.5s19 42.5 42.5 42.5h425c23.5 0 42.5-19 42.5-42.5S748 937 724.5 937z" p-id="5816"></path></svg>