<?xml version="1.0" standalone="no"?><!DOCTYPE svg PUBLIC "-//W3C//DTD SVG 1.1//EN" "http://www.w3.org/Graphics/SVG/1.1/DTD/svg11.dtd"><svg t="1575287236152" class="icon" viewBox="0 0 1024 1024" version="1.1" xmlns="http://www.w3.org/2000/svg" p-id="13886" xmlns:xlink="http://www.w3.org/1999/xlink" width="200" height="200"><defs><style type="text/css"></style></defs><path d="M678.5 799.5h-339l-1.4-20.6c-2.3-34.1-9.8-61.3-21.3-76.5-118-151.8-121.3-297.7-121.3-299.1 0-173 140.8-313.8 313.8-313.8S823 230.2 823 403.2c0 1.4-3.3 147.1-121.6 299.4-11.3 15-19 42.3-21.5 76.4l-1.4 20.5z m-298.3-44.2H638c4.6-33.9 14.1-60.6 28.4-79.5 109-140.4 112.4-271.2 112.5-272.5 0-148.6-120.9-269.6-269.6-269.6-148.6 0-269.6 120.9-269.6 269.6 0 1.3 3.3 132.1 112.2 272.3 14.4 19.1 23.9 45.8 28.3 79.7z" p-id="13887"></path><path d="M317 402.1h-44.2c0-129.7 106.1-235.3 236.4-235.3V211c-105.9 0-192.1 85.8-192.2 191.1zM352.187 460.033l43.502-7.837 57.747 320.554-43.502 7.837zM565.079 772.755L622.728 452.2l43.501 7.823-57.648 320.554z" p-id="13888"></path><path d="M509.2 523.3l-44.5-22.1-44.4 22.1-54.4-27 19.7-39.6 34.7 17.2 44.4-22.1 44.5 22.1 44.4-22.1 44.6 22.1 34.7-17.2 19.7 39.6-54.4 27-44.5-22.1zM319.6 758.7h379.3v44.2H319.6zM319.6 832.4h379.3v44.2H319.6zM319.6 906.1h379.3v44.2H319.6zM371.2 979.8h276.1v44.2H371.2z" p-id="13889"></path><path d="M341.5 784.8h44.2v140h-44.2z" p-id="13890"></path><path d="M487.2 0h44.2v57.8h-44.2zM383.983 19.404l42.693-11.452 14.976 55.83-42.693 11.451zM289.286 64.835l38.281-22.092 28.889 50.061-38.282 22.091zM209.624 133.241l31.254-31.258 40.876 40.87-31.254 31.259zM150.4 219.936l22.1-38.277 50.054 28.9-22.1 38.277zM115.651 318.985l11.44-42.693 55.925 14.985-11.44 42.692zM107.7 379.5h57.8v44.2h-57.8zM115.634 484.113l55.83-14.953 11.434 42.693-55.83 14.953zM172.5 621.5l-22.1-38.3 50.1-28.9 22.1 38.3zM209.65 669.93l40.871-40.87 31.254 31.254-40.87 40.87zM736.636 660.309l31.258-31.25 40.865 40.877-31.259 31.249zM795.911 592.607l22.118-38.268 50.043 28.923-22.117 38.269zM835.564 511.913l11.434-42.697 55.835 14.953-11.435 42.697zM853 379.5h57.8v44.2H853zM835.55 291.236l55.83-14.965 11.442 42.693-55.829 14.965zM795.968 210.593l50.049-28.917 22.113 38.272-50.05 28.918zM736.758 142.923l40.859-40.882 31.263 31.245-40.86 40.882zM662.032 92.874l28.9-50.054 38.277 22.1-28.9 50.054zM576.899 63.866L591.84 8.03l42.697 11.426-14.94 55.835z" p-id="13891"></path></svg>