<?xml version="1.0" standalone="no"?><!DOCTYPE svg PUBLIC "-//W3C//DTD SVG 1.1//EN" "http://www.w3.org/Graphics/SVG/1.1/DTD/svg11.dtd"><svg t="1575459681943" class="icon" viewBox="0 0 1024 1024" version="1.1" xmlns="http://www.w3.org/2000/svg" p-id="11909" xmlns:xlink="http://www.w3.org/1999/xlink" width="200" height="200"><defs><style type="text/css"></style></defs><path d="M105.231059 88.244706L46.622118 149.202824c-6.927059 7.228235-14.938353 11.535059-25.359059 9.547294a25.660235 25.660235 0 0 1-16.022588-40.83953c2.048-2.740706 4.547765-5.150118 6.987294-7.589647C45.477647 77.251765 78.757647 44.212706 112.037647 11.203765c15.209412-15.119059 29.214118-14.968471 43.730824 0.662588C187.241412 45.778824 218.654118 79.811765 250.157176 113.754353c7.710118 8.282353 10.721882 17.769412 6.866824 28.581647-3.493647 9.788235-10.932706 15.390118-21.142588 16.685176-9.577412 1.204706-17.197176-2.861176-23.612236-9.818352-14.998588-16.323765-30.117647-32.527059-45.086117-48.790589-1.897412-2.078118-3.222588-4.608-4.818824-6.927059l-2.017882 1.505883v777.396706H936.357647l-31.201882-31.954824c-5.601882-5.782588-11.444706-11.354353-16.77553-17.377882-10.420706-11.655529-10.179765-27.105882 0.301177-37.195294 10.360471-9.968941 25.991529-9.667765 36.98447 1.475764 26.473412 26.804706 52.645647 53.910588 78.968471 80.865883 3.824941 3.915294 7.800471 7.68 11.444706 11.745882 10.059294 11.264 10.842353 24.756706 0.783059 35.870118a8571.753412 8571.753412 0 0 1-91.648 99.779764 25.328941 25.328941 0 0 1-36.321883 1.385412c-10.330353-9.728-11.294118-25.208471-1.295059-36.502588 16.203294-18.311529 32.978824-36.141176 50.989177-55.717647h-11.113412L139.143529 924.702118c-17.92 0-28.852706-8.342588-30.659764-23.491765-0.451765-3.704471-0.271059-7.499294-0.271059-11.233882V90.142118l-3.011765-1.897412z" p-id="11910"></path><path d="M332.197647 557.568a33.942588 33.942588 0 0 0-34.635294-34.063059 34.454588 34.454588 0 0 0-34.183529 34.032941 34.484706 34.484706 0 0 0 34.514823 34.484706c19.275294 0.030118 34.364235-15.149176 34.304-34.454588z m620.935529-249.253647c-0.150588-19.154824-15.962353-34.785882-34.725647-34.304a34.936471 34.936471 0 0 0-33.91247 34.484706c0 19.094588 15.420235 34.484706 34.514823 34.454588a33.852235 33.852235 0 0 0 34.123294-34.635294z m-436.555294 1.837176a34.394353 34.394353 0 0 0-34.213647-34.816 34.906353 34.906353 0 0 0-34.635294 34.635295 34.936471 34.936471 0 0 0 34.032941 34.394352c18.974118 0.301176 34.695529-15.119059 34.816-34.213647z m211.968 412.732236c19.215059 0 34.484706-15.269647 34.454589-34.484706a34.785882 34.785882 0 0 0-34.69553-34.484706 35.056941 35.056941 0 0 0-34.123294 34.334118 34.424471 34.424471 0 0 0 34.364235 34.635294z m-178.838588-358.309647l54.332235 84.630588c31.954824 49.874824 63.939765 99.719529 95.774118 149.684706 2.921412 4.547765 5.270588 6.866824 11.504941 5.24047 7.107765-1.867294 14.878118-2.258824 22.196706-1.65647 6.324706 0.512 9.396706-0.903529 12.348235-6.836706 36.321882-72.764235 72.884706-145.377882 109.628236-217.931294 2.620235-5.150118 2.319059-8.252235-1.596236-12.739765a85.775059 85.775059 0 0 1-10.330353-98.183529c18.281412-32.647529 53.820235-49.453176 91.166118-43.128471 34.153412 5.782588 62.554353 34.424471 69.089882 69.722353 9.968941 53.669647-32.316235 102.912-87.552 101.074824-8.944941-0.301176-12.890353 2.409412-16.745411 10.089411a35181.206588 35181.206588 0 0 1-107.610353 214.136471c-2.710588 5.330824-2.680471 8.553412 1.566117 13.281882 24.214588 27.196235 28.129882 67.222588 10.270118 98.906353-17.769412 31.533176-54.482824 49.242353-88.937412 42.917647-37.707294-6.927059-64.903529-34.394353-71.077647-71.469176-4.216471-25.027765 2.469647-47.194353 17.468236-67.885177l-26.804706-41.863529c-41.140706-64.150588-82.341647-128.240941-123.181177-192.512-3.584-5.601882-6.987294-6.023529-13.101176-5.722353-12.709647 0.572235-25.539765-0.903529-38.309647-1.114353-3.162353-0.060235-7.740235 0.421647-9.276236 2.469647-27.617882 36.773647-54.844235 73.848471-82.522353 111.344941a91.256471 91.256471 0 0 1 15.932236 55.17553c-1.626353 44.062118-36.954353 78.968471-83.395765 81.769411-41.291294 2.499765-81.167059-30.057412-87.461647-71.408941-9.637647-63.006118 44.965647-113.453176 106.586353-98.213647 5.421176 1.325176 8.041412 0.301176 11.233882-4.096a12605.349647 12605.349647 0 0 1 76.860236-104.116706c3.192471-4.276706 3.553882-7.258353 0.722823-12.047059a85.353412 85.353412 0 0 1 5.180235-96.466823 86.016 86.016 0 0 1 89.720471-31.472941 86.528 86.528 0 0 1 64.512 72.975059c2.831059 20.781176-1.957647 38.128941-18.191059 65.445647z" p-id="11911"></path></svg>