<?xml version="1.0" standalone="no"?><!DOCTYPE svg PUBLIC "-//W3C//DTD SVG 1.1//EN" "http://www.w3.org/Graphics/SVG/1.1/DTD/svg11.dtd"><svg t="1575443766458" class="icon" viewBox="0 0 1024 1024" version="1.1" xmlns="http://www.w3.org/2000/svg" p-id="48771" xmlns:xlink="http://www.w3.org/1999/xlink" width="200" height="200"><defs><style type="text/css"></style></defs><path d="M873.083612 1023.732928H149.846193c-69.602006 0-126.223423-56.319003-126.223423-125.548805V175.063018c0-69.741582 57.040146-126.502576 127.177194-126.502576h69.160014c0.581568 0 1.070084 0.069788 1.465551 0.116314a4.024448 4.024448 0 0 0 0.744406 0.069788 30.567191 30.567191 0 0 1 0.302415 61.111119v0.302415l-0.279152 0.023263-0.162839-0.023263H149.357677A64.949465 64.949465 0 0 0 84.315161 174.876917v119.872705c0 1.628389 1.325974 2.977626 3.000888 2.977626h849.251477a3.024151 3.024151 0 0 0 3.000889-2.977626V174.876917a64.972728 64.972728 0 0 0-65.065779-64.716839h-82.001026v-0.721143a30.520666 30.520666 0 0 1-28.613124-30.311302c0-16.795671 13.678469-30.450877 30.497403-30.450877l0.930508-0.046525a13.562156 13.562156 0 0 1 1.3725-0.069789h76.371452c70.137048 0 127.177194 56.760994 127.177194 126.502576v722.190597c0 69.741582-57.040146 126.479313-127.153931 126.479313z m66.484803-666.383374a2.977626 2.977626 0 0 0-3.000889-2.977626H87.316049a2.977626 2.977626 0 0 0-3.000888 2.977626v540.741518a65.531033 65.531033 0 0 0 65.624083 65.275143h724.260977c36.057189 0 65.368194-29.148166 65.368194-64.995991V357.349554z m-117.313808 433.081731H196.650751c-15.702324 0-28.473548-14.260037-28.473548-31.776851 0-17.516815 12.771224-31.776852 28.473548-31.776852h625.580593c15.702324 0 28.473548 14.260037 28.473548 31.776852 0 8.421098-2.931101 16.35368-8.211734 22.332194-5.373684 6.094828-12.561859 9.444657-20.238551 9.444657z m-0.023263-223.950036H196.650751c-15.702324 0-28.473548-14.236774-28.473548-31.753589s12.771224-31.776852 28.473548-31.776851h625.580593c15.702324 0 28.473548 14.260037 28.473548 31.776851 0 17.516815-12.771224 31.753589-28.473548 31.753589zM705.080375 158.499974a28.40376 28.40376 0 0 1-28.450285-28.310709v-101.658009C676.63009 12.921982 689.378051 0.220547 705.080375 0.220547s28.473548 12.701436 28.473547 28.310709v101.658009c0 15.609273-12.771224 28.310709-28.473547 28.310709zM619.101427 107.694232h-215.575464a28.427022 28.427022 0 0 1-28.473548-28.333972c0-15.609273 12.771224-28.310709 28.473548-28.310708h215.575464c15.702324 0 28.473548 12.701436 28.473547 28.310708 0 15.632536-12.771224 28.333972-28.473547 28.333972zM313.80172 158.499974a28.427022 28.427022 0 0 1-28.473548-28.310709v-101.658009C285.328172 12.921982 298.099396 0.220547 313.80172 0.220547c15.702324 0 28.473548 12.701436 28.473548 28.310709v101.658009c0 15.609273-12.794486 28.310709-28.473548 28.310709z" p-id="48772"></path></svg>