<?xml version="1.0" standalone="no"?><!DOCTYPE svg PUBLIC "-//W3C//DTD SVG 1.1//EN" "http://www.w3.org/Graphics/SVG/1.1/DTD/svg11.dtd"><svg t="1575279755749" class="icon" viewBox="0 0 1024 1024" version="1.1" xmlns="http://www.w3.org/2000/svg" p-id="13099" xmlns:xlink="http://www.w3.org/1999/xlink" width="200" height="200"><defs><style type="text/css"></style></defs><path d="M378.2 412h93.9v93.9h-93.9zM378.2 553.6h93.9v94h-93.9zM236.5 412h93.9v93.9h-93.9zM378.2 695.3h93.9v93.9h-93.9z" fill="" p-id="13100"></path><path d="M807.6 182.5h-61.2v32.8c0 44.4-36.1 80.5-80.5 80.5s-80.5-36.1-80.5-80.5v-32.8H406.5v32.8c0 44.4-36.1 80.5-80.5 80.5s-80.5-36.1-80.5-80.5v-32.8h-61.2c-33.7 0-61.1 27.4-61.1 61.1V867c0 33.7 27.4 61.1 61.1 61.1h623.3c33.7 0 61.1-27.4 61.1-61.1V243.7c0-33.7-27.4-61.2-61.1-61.2z m-0.7 162v521.2H185V344.5h621.9z" fill="" p-id="13101"></path><path d="M236.5 695.3h93.9v93.9h-93.9zM236.5 553.6h93.9v94h-93.9zM661.5 553.6h93.9v94h-93.9zM661.5 412h93.9v93.9h-93.9zM519.9 695.3h93.9v93.9h-93.9zM665.1 276.4c33.2 0 60.2-27 60.2-60.2v-58.4c0-33.2-27-60.2-60.2-60.2s-60.2 27-60.2 60.2v58.4c-0.1 33.2 27 60.2 60.2 60.2zM325.1 276.4c33.2 0 60.2-27 60.2-60.2v-58.4c0-33.2-27-60.2-60.2-60.2s-60.2 27-60.2 60.2v58.4c0 33.2 27 60.2 60.2 60.2zM519.9 553.6h93.9v94h-93.9zM519.9 412h93.9v93.9h-93.9zM661.5 695.3h93.9v93.9h-93.9z" fill="" p-id="13102"></path></svg>