<?xml version="1.0" standalone="no"?><!DOCTYPE svg PUBLIC "-//W3C//DTD SVG 1.1//EN" "http://www.w3.org/Graphics/SVG/1.1/DTD/svg11.dtd"><svg t="1579173743235" class="icon" viewBox="0 0 1024 1024" version="1.1" xmlns="http://www.w3.org/2000/svg" p-id="12888" xmlns:xlink="http://www.w3.org/1999/xlink" width="200" height="200"><defs><style type="text/css"></style></defs><path d="M297.620935 63.993751c30.197051 0 47.095401 14.398594 74.292745 39.996094 4.19959 3.899619 8.39918 7.799238 12.69876 11.698857-19.798067 10.498975-40.096084 23.197735-59.49419 37.196368-23.797676 17.19832-45.295577 35.796504-62.493897 54.194707-11.498877-27.897276-23.097744-56.694463-23.097744-85.791622 0-15.098526 5.999414-29.397129 16.99834-40.296064 10.998926-10.998926 25.5975-16.99834 41.095986-16.99834m564.444879 13.398691c24.197637 0 43.795723 19.698076 43.795723 43.795723 0 19.498096-33.196758 46.395469-57.494385 65.993556-1.899814 1.499854-3.799629 3.099697-5.699444 4.59955-6.099404-13.398692-13.998633-26.797383-23.697686-39.896104-5.899424-7.899229-15.798457-20.098037-28.997168-31.896885 5.199492-3.899619 10.199004-7.899229 14.998536-11.698857 24.397617-19.098135 40.196075-30.896983 57.094424-30.896983m-94.590763 391.161801c1.799824 3.699639 3.599648 7.099307 5.299483 10.398984 7.999219 15.498486 11.898838 23.397715 11.898838 34.996583 0 8.49917-2.699736 15.698467-7.699248 20.797969-4.799531 4.899522-11.598867 7.499268-19.498096 7.499267-18.298213 0-24.497608-5.699443-41.195977-23.697686-1.399863-1.499854-2.799727-2.999707-4.29958-4.59955 18.698174-12.398789 34.496631-25.69749 45.095596-35.496534 3.099697-2.799727 6.699346-6.199395 10.398984-9.899033m-247.375842 21.697881c2.999707 4.599551 6.399375 9.099111 10.099014 13.398691 2.699736 3.199688 5.499463 6.199395 8.49917 9.099112-15.498486 13.598672-19.798067 15.998438-27.697295 15.998437-8.999121 0-15.798457-7.199297-15.798458-16.798359 0-1.999805 0.399961-3.799629 2.299776-6.399375 2.899717-3.899619 7.999219-7.699248 14.398594-10.898936 2.799727-1.299873 5.499463-2.799727 8.199199-4.39957m-338.466947 50.595059c8.999121 28.697198 23.197735 60.094131 41.095987 90.791134 17.09833 29.397129 36.496436 56.594473 56.294503 78.792305 1.699834 1.899814 3.299678 3.699639 4.899521 5.399473-6.299385 2.899717-12.498779 5.799434-18.698174 8.79914-34.09667 16.298408-69.293233 33.096768-116.688604 33.096768-46.395469 0-84.091788-37.796309-84.091788-84.191778 0-22.997754 6.199395-40.696026 20.098037-57.394395 14.998535-17.998242 36.996387-32.996778 60.194122-48.895225 12.098818-8.29919 24.697588-16.89835 36.896396-26.397422m680.433552 223.778147c26.097451 0 50.595059 10.099014 68.993262 28.597207 18.398203 18.398203 28.597207 42.995801 28.597208 69.093252 0 53.894737-43.795723 97.69046-97.59047 97.69046-20.497998 0-40.196075-6.299385-56.794454-18.198222-16.298408-11.898838-28.497217-27.997266-35.196563-46.895421l-0.699931-1.899814-0.799922-1.799825c-4.29958-10.099014-14.198613-30.497022-31.596915-52.594863l54.89464-45.095596c1.799824-1.399863 3.499658-2.799727 4.999511-4.0996l3.199688-2.599746c17.598281-14.498584 39.096182-22.197832 61.993946-22.197832M297.620935 0c-66.893467 0-122.188068 54.294698-122.188067 121.288155 0 79.192266 54.594668 142.986037 44.795625 178.482571-0.09999 0.799922-0.299971 1.599844-0.499951 2.399765l-36.096475 134.886828C160.934284 517.349478 0.349966 531.04814 0.349966 673.634215c0 81.792012 66.293526 148.185529 148.085538 148.185529 104.789767 0 161.984181-61.993946 211.979299-61.993946 4.899522 0 9.699053 0.599941 14.398594 1.899815 4.0996 1.099893 234.677082 62.493897 234.677082 62.493897 65.493604 20.298018 93.790841 77.292452 100.190216 92.290987 22.297822 62.693878 82.091983 107.489503 152.285129 107.489503 89.29128 0 161.58422-72.39293 161.58422-161.684211 0-89.29128-72.29294-161.684211-161.58422-161.68421-38.996192 0-74.792696 13.798652-102.689972 36.796407l0.19998-0.499952s-37.996289 38.996192-100.990137 38.996192c-10.998926 0-22.697783-1.199883-35.096573-3.999609l-250.975491-67.293429C320.81867 685.933014 217.828728 527.148521 235.62699 451.055952c0 0 29.89708-109.089347 38.996191-145.685773 15.598477-62.893858 149.785373-153.285031 208.07968-157.18465 23.797676-1.599844 56.394493-2.199785 90.491163-2.199785 48.795235 0 100.990138 1.199883 135.98672 2.199785 37.096377 1.099893 94.590763 75.092667 82.791915 118.88839-6.299385 23.497705-18.198223 67.693389-25.29753 93.990821-9.799043 36.496436-84.89171 110.189239-138.386485 122.088077-2.699736 0.599941-5.299482 0.899912-7.999219 0.899912-30.497022 0-59.994141-36.796407-55.894542-62.293916 1.799824-11.098916 6.899326-32.696807 21.09794-39.996095 25.39752-9.599063 43.995704-30.697002 43.995704-59.49419 0-37.196368-26.097451-66.393516-63.293819-66.393516-37.196368 0-64.393712 30.097061-64.393712 67.393419 0 12.69876 8.899131 28.497217 13.598672 39.396153 4.699541 10.698955 4.699541 25.29753-0.299971 39.296162-5.099502 14.098623-15.398496 27.497315-31.296943 35.296553-29.397129 14.498584-52.394883 39.996094-52.394884 74.592716 0 44.695635 35.096573 80.79211 79.792208 80.79211 60.894053 0 76.892491-57.294405 116.288644-57.294405 41.395957 0 49.295186 70.893077 130.187286 70.893077 52.094913 0 91.191095-40.196075 91.191095-92.290987 0-59.794161-45.995508-79.392247-31.496924-131.987111 0.399961-1.399863 25.797481-97.090519 25.79748-97.090519 13.098721-39.196172 126.987599-83.591837 126.987599-163.584025 0-59.49419-48.395274-107.789474-107.789473-107.789473-74.592716 0-112.289034 80.79211-167.883606 80.79211H478.903232C423.208671 94.190802 397.21121 0 297.620935 0z" p-id="12889"></path></svg>