<?xml version="1.0" standalone="no"?><!DOCTYPE svg PUBLIC "-//W3C//DTD SVG 1.1//EN" "http://www.w3.org/Graphics/SVG/1.1/DTD/svg11.dtd"><svg t="1575440126900" class="icon" viewBox="0 0 1024 1024" version="1.1" xmlns="http://www.w3.org/2000/svg" p-id="3643" xmlns:xlink="http://www.w3.org/1999/xlink" width="200" height="200"><defs><style type="text/css"></style></defs><path d="M969.728 499.712L510.656 9.28a30.72 30.72 0 0 0-20.16-8.448h-5.632a30.464 30.464 0 0 0-20.096 8.448L9.216 499.712c-12.672 12.8-11.904 34.048 1.728 47.68 0.192 0.256 0.448 0.32 0.64 0.448a32.512 32.512 0 0 0 23.936 10.688h103.296v385.024c0 10.24 4.608 19.2 11.648 25.6 6.144 7.232 14.784 12.032 24.768 12.032h209.152c9.6 0 18.112-4.352 24.192-11.136a34.24 34.24 0 0 0 13.12-26.56v-10.24c-0.192-0.96-0.64-1.856-0.64-2.88v-213.952c0-9.6 7.872-17.472 17.536-17.472h101.888c9.6 0 17.472 7.872 17.472 17.472v213.952c0 0.768-0.384 1.472-0.448 2.176v10.88c0 10.944 5.312 20.224 13.12 26.624a32.384 32.384 0 0 0 24.128 11.136h209.216c9.984 0 18.56-4.8 24.704-12.032 7.104-6.4 11.712-15.36 11.712-25.6V558.528h103.296a32.32 32.32 0 0 0 24.128-11.072l0.128-0.064c13.632-13.568 14.4-34.944 1.792-47.68z m-584.96 128.64a34.176 34.176 0 0 0-33.344 34.944c0 0.832 0.384 1.472 0.384 2.304v245.76H208.64V524.16a34.24 34.24 0 0 0-3.008-13.952 33.344 33.344 0 0 0-30.784-21.632h-60.8l354.624-384.768c17.28-17.28 21.568-17.28 38.016 0l357.76 384.832h-60.032a33.344 33.344 0 0 0-30.848 21.632 34.56 34.56 0 0 0-3.008 13.952v387.072H627.392v-247.36l-0.064-0.32v-0.32a34.176 34.176 0 0 0-33.344-34.944H384.768z" p-id="3644"></path></svg>