<?xml version="1.0" standalone="no"?><!DOCTYPE svg PUBLIC "-//W3C//DTD SVG 1.1//EN" "http://www.w3.org/Graphics/SVG/1.1/DTD/svg11.dtd"><svg t="1575440143161" class="icon" viewBox="0 0 1024 1024" version="1.1" xmlns="http://www.w3.org/2000/svg" p-id="3770" xmlns:xlink="http://www.w3.org/1999/xlink" width="200" height="200"><defs><style type="text/css"></style></defs><path d="M946.08 354.08c0.064 22.496-1.28 45.12 0.32 67.52 3.52 52.352-28.224 97.44-83.904 109.76v15.776c0 101.888 0.064 203.84 0 305.728 0 49.408-26.4 75.936-75.328 75.936H229.44c-50.336 0-76.64-26.048-76.704-75.968 0-102.4-0.128-204.768 0.256-307.136 0.064-10.528-2.56-14.368-13.44-17.184-39.36-10.144-67.488-35.616-72.192-75.84a513.984 513.984 0 0 1 0.576-121.888c5.6-44.672 47.552-76 92.8-76.768 30.72-0.416 61.504-0.064 92.256-0.064h16.448c-10.816-10.752-19.776-19.008-27.84-27.808-21.44-23.296-38.24-49.152-43.52-81.216-5.376-32.96 10.752-61.088 42.24-73.056 31.552-12.032 63.264-8.96 94.528 0.352 65.6 19.424 119.04 55.936 155.424 114.976 3.552 5.824 6.24 12.288 8.96 18.56 2.432 5.888 4.384 11.936 6.432 17.44 38.464-92.352 109.92-141.248 205.984-157.312 15.424-2.56 32.256-1.152 47.744 1.856 44.384 8.576 65.6 46.4 52.512 90.464-9.92 33.76-30.912 59.968-56 83.552-2.688 2.496-5.504 4.896-8.064 7.456-0.64 0.576-0.864 1.6-1.824 3.584 3.776 0.416 7.072 1.088 10.432 1.088 29.888 0.064 59.68-0.064 89.504 0.064 57.184 0.224 99.968 42.976 100.16 100.16zM219.712 861.952h576.352V533.12H219.744v328.864z m621.024-395.68c26.816 0 39.552-12.8 39.616-39.584 0.064-23.904 0.256-47.744-0.064-71.648-0.224-21.984-13.248-35.264-35.104-35.264-226.368-0.16-452.672-0.16-679.04 0-23.328 0-36 13.28-36.16 36.992-0.16 21.632 0 43.2 0 64.768 0 33.792 10.784 44.8 44.096 44.8h330.56c112.032 0 224.032 0 336.096-0.064zM262.304 133.472c18.304 70.208 134.496 129.504 179.2 108.288-3.008-17.728-13.12-31.936-24.96-44.544-36.448-38.624-79.68-64.288-134.08-66.944-6.656-0.32-13.44 1.984-20.16 3.2z m486.432 0.32c-41.6-19.264-160.224 37.12-177.44 108.096 55.488 22.88 173.312-52.672 177.44-108.128z" p-id="3771"></path></svg>