<?xml version="1.0" standalone="no"?><!DOCTYPE svg PUBLIC "-//W3C//DTD SVG 1.1//EN" "http://www.w3.org/Graphics/SVG/1.1/DTD/svg11.dtd"><svg t="1575443470824" class="icon" viewBox="0 0 1024 1024" version="1.1" xmlns="http://www.w3.org/2000/svg" p-id="40171" xmlns:xlink="http://www.w3.org/1999/xlink" width="200" height="200"><defs><style type="text/css"></style></defs><path d="M768 765.212444l0 241.777778-56.888889 0 0-241.777778L469.333333 765.212444l0-56.888889 241.777778 0 0-241.777778 56.888889 0 0 241.777778 241.777778 0 0 56.888889L768 765.212444zM782.222222 324.423111 284.444444 324.423111l0-42.808889 497.777778 0L782.222222 324.423111zM910.222222 81.024 128 82.545778l0 85.304889 28.444444 0 0 170.794667L128 338.645333l0 99.256889 28.444444 0 0 170.794667L128 608.696889l0 99.527111 28.444444 0 0 170.794667L128 879.018667l0 85.319111 483.555556 0 0 42.666667L85.333333 1007.004444l0-127.985778L14.222222 879.018667 14.222222 708.209778l71.111111 0 0-99.527111L14.222222 608.682667 14.222222 437.888l71.111111 0 0-99.256889L14.222222 338.631111 14.222222 167.850667l71.111111 0L85.333333 39.879111l867.555556 0 0 341.333333-42.666667 0L910.222222 81.024zM42.666667 736.824889l0 113.550222 85.333333 0 0-113.550222L42.666667 736.824889zM42.666667 466.446222l0 114.161778 85.333333 0 0-114.161778L42.666667 466.446222zM42.666667 196.323556l0 113.777778 85.333333 0 0-113.777778L42.666667 196.323556z" p-id="40172"></path></svg>