<?xml version="1.0" standalone="no"?><!DOCTYPE svg PUBLIC "-//W3C//DTD SVG 1.1//EN" "http://www.w3.org/Graphics/SVG/1.1/DTD/svg11.dtd"><svg t="1575277967230" class="icon" viewBox="0 0 1024 1024" version="1.1" xmlns="http://www.w3.org/2000/svg" p-id="4271" xmlns:xlink="http://www.w3.org/1999/xlink" width="200" height="200"><defs><style type="text/css"></style></defs><path d="M327.68 348.16h450.56v40.96H327.68zM327.68 491.52h286.72v40.96H327.68zM530.432 634.88c12.288 12.288 20.48 26.624 30.72 40.96H696.32v-40.96h-165.888z" p-id="4272"></path><path d="M819.2 20.48H266.24c-34.816 0-61.44 26.624-61.44 61.44v518.144c12.288-10.24 26.624-16.384 40.96-24.576V102.4c0-22.528 18.432-40.96 40.96-40.96h51.2l32.768 143.36h348.16l32.768-143.36H798.72c22.528 0 40.96 18.432 40.96 40.96v757.76c0 22.528-18.432 40.96-40.96 40.96H571.392c-6.144 14.336-14.336 28.672-24.576 40.96H819.2c34.816 0 61.44-26.624 61.44-61.44V81.92c0-34.816-26.624-61.44-61.44-61.44z m-135.168 143.36H401.408l-22.528-102.4h329.728l-24.576 102.4z" p-id="4273"></path><path d="M552.96 798.72c0 112.64-92.16 204.8-204.8 204.8S143.36 911.36 143.36 798.72s92.16-204.8 204.8-204.8 204.8 92.16 204.8 204.8z m-61.44-20.48h-122.88v-122.88h-40.96v122.88h-122.88v40.96h122.88v122.88h40.96v-122.88h122.88v-40.96z" p-id="4274"></path></svg>