<?xml version="1.0" standalone="no"?><!DOCTYPE svg PUBLIC "-//W3C//DTD SVG 1.1//EN" "http://www.w3.org/Graphics/SVG/1.1/DTD/svg11.dtd"><svg t="1575443429485" class="icon" viewBox="0 0 1024 1024" version="1.1" xmlns="http://www.w3.org/2000/svg" p-id="40044" xmlns:xlink="http://www.w3.org/1999/xlink" width="200" height="200"><defs><style type="text/css"></style></defs><path d="M785.066667 785.066667v238.933333h-68.266667v-238.933333h-238.933333v-68.266667h238.933333v-238.933333h68.266667v238.933333h238.933333v68.266667h-238.933333zM273.066667 238.933333h546.133333v68.266667H273.066667V238.933333z m0 238.933334h341.333333v68.266666H273.066667v-68.266666zM921.6 68.266667H136.533333v68.266666h68.266667v204.8H136.533333v68.266667h68.266667v204.8H136.533333v68.266667h68.266667v204.8H136.533333v68.266666h307.2v68.266667H68.266667v-136.533333H0v-204.8h68.266667v-68.266667H0v-204.8h68.266667v-68.266667H0V136.533333h68.266667V0h921.6v409.6h-68.266667V68.266667zM68.266667 819.2h68.266666v-68.266667H68.266667v68.266667z m0-273.066667h68.266666v-68.266666H68.266667v68.266666z m0-273.066666h68.266666V204.8H68.266667v68.266667z" p-id="40045"></path></svg>