<?xml version="1.0" standalone="no"?><!DOCTYPE svg PUBLIC "-//W3C//DTD SVG 1.1//EN" "http://www.w3.org/Graphics/SVG/1.1/DTD/svg11.dtd"><svg t="1575441138387" class="icon" viewBox="0 0 1024 1024" version="1.1" xmlns="http://www.w3.org/2000/svg" p-id="21393" xmlns:xlink="http://www.w3.org/1999/xlink" width="200" height="200"><defs><style type="text/css"></style></defs><path d="M608 469.333c0-53.034-42.986-96-96-96-0.64 0-1.259 0.171-1.92 0.171l-122.603-106.838-22.806-18.667 60.032 181.824c-5.483 12.096-8.704 25.387-8.704 39.509 0 52.992 42.986 96 96 96 0.64 0 1.259-0.171 1.92-0.214l122.603 106.88 22.144 15.338-59.371-178.496c5.483-12.096 8.704-25.387 8.704-39.509zM512 522.667c-29.461 0-53.333-23.872-53.333-53.333s23.872-53.333 53.333-53.333 53.333 23.872 53.333 53.333-23.872 53.333-53.333 53.333zM821.334 864v-64h21.334v-682.667h-576c-47.125 0-85.333 38.208-85.333 85.333v618.71c0 47.083 38.208 85.291 85.333 85.291h490.667c0.149 0 0.299 0 0.448 0h84.885v-42.667h-21.334zM794.218 864h-548.886c-12.373-4.416-21.334-18.133-21.334-32 0-13.91 8.96-27.541 21.334-32v0h549.334l-0.448 64zM800 202.666v554.666l-554.666 0.085c-7.787 0.043-15.061 0.214-21.334 0.704v-555.456c0-23.552 19.115-42.624 42.667-42.624l533.333-0.043v42.667z" fill="#2c2c2c" p-id="21394"></path></svg>