<?xml version="1.0" standalone="no"?><!DOCTYPE svg PUBLIC "-//W3C//DTD SVG 1.1//EN" "http://www.w3.org/Graphics/SVG/1.1/DTD/svg11.dtd"><svg t="1575443644659" class="icon" viewBox="0 0 1033 1024" version="1.1" xmlns="http://www.w3.org/2000/svg" p-id="44692" xmlns:xlink="http://www.w3.org/1999/xlink" width="201.7578125" height="200"><defs><style type="text/css"></style></defs><path d="M126.712686 645.675886c11.819886 0 22.9376-4.651886 31.305143-13.019429a44.178286 44.178286 0 0 0 11.176228-43.914971l203.688229-205.326629a44.119771 44.119771 0 0 0 42.159543-8.104228 18.783086 18.783086 0 0 0 6.261028 4.973714l173.319314 86.659657c2.399086 1.199543 4.973714 1.872457 7.753143 2.018743a44.178286 44.178286 0 0 0 44.266057 46.665143c11.819886 0 22.9376-4.622629 31.305143-12.990172 11.702857-11.644343 15.886629-28.642743 10.971429-44.4416l207.2576-247.164343a43.856457 43.856457 0 0 0 41.749943-11.702857c8.367543-8.367543 12.990171-19.514514 12.990171-31.363657 0-11.819886-4.622629-22.966857-12.990171-31.3344-8.338286-8.367543-19.485257-12.990171-31.3344-12.990171s-22.996114 4.622629-31.3344 12.960914a44.470857 44.470857 0 0 0-8.981943 49.737143l-204.097829 243.448686a44.383086 44.383086 0 0 0-43.973485 7.519085 20.216686 20.216686 0 0 0-6.261029-5.002971l-173.319314-86.659657a19.397486 19.397486 0 0 0-7.753143-2.018743 44.266057 44.266057 0 0 0-44.266057-46.665143c-11.849143 0-22.996114 4.622629-31.3344 12.990171a44.4416 44.4416 0 0 0-10.298515 46.4896l-202.020571 203.629715a44.500114 44.500114 0 0 0-47.7184 9.888914 44.4416 44.4416 0 0 0 31.480686 75.717486z" p-id="44693"></path><path d="M1014.901029 929.557943H973.677714V341.313829a2.048 2.048 0 0 0-2.018743-2.048h-129.989485a2.048 2.048 0 0 0-2.048 2.048v588.244114h-125.922743v-284.935314a2.048 2.048 0 0 0-2.018743-2.048h-129.989486a2.048 2.048 0 0 0-2.018743 2.048v284.935314h-125.922742V514.633143a2.048 2.048 0 0 0-2.018743-2.048h-130.018743a2.048 2.048 0 0 0-2.048 2.048v414.954057H193.711543v-154.945829a2.018743 2.018743 0 0 0-2.048-2.018742H61.674057c-1.141029 0-2.048 0.877714-2.048 2.018742v154.945829H18.344229c-10.152229-0.029257-18.344229 14.336-18.344229 24.458971s8.192 18.344229 18.344229 18.344229h996.615314c10.122971 0 18.344229-8.192 18.344228-18.344229s-8.221257-24.488229-18.402742-24.488228z" p-id="44694"></path></svg>