<?xml version="1.0" standalone="no"?><!DOCTYPE svg PUBLIC "-//W3C//DTD SVG 1.1//EN" "http://www.w3.org/Graphics/SVG/1.1/DTD/svg11.dtd"><svg t="1575443639373" class="icon" viewBox="0 0 1024 1024" version="1.1" xmlns="http://www.w3.org/2000/svg" p-id="44565" xmlns:xlink="http://www.w3.org/1999/xlink" width="200" height="200"><defs><style type="text/css"></style></defs><path d="M122.88 778.24V184.32c0-22.528 18.432-40.96 40.96-40.96h307.2c12.288 0 20.48-8.192 20.48-20.48s-8.192-20.48-20.48-20.48H163.84C118.784 102.4 81.92 139.264 81.92 184.32v593.92c0 12.288 8.192 20.48 20.48 20.48s20.48-8.192 20.48-20.48zM901.12 532.48c-12.288 0-20.48 8.192-20.48 20.48v307.2c0 22.528-18.432 40.96-40.96 40.96H225.28c-12.288 0-20.48 8.192-20.48 20.48s8.192 20.48 20.48 20.48h614.4c45.056 0 81.92-36.864 81.92-81.92V552.96c0-12.288-8.192-20.48-20.48-20.48zM880.64 81.92H634.88c-12.288 0-20.48 8.192-20.48 20.48s8.192 20.48 20.48 20.48h241.664c-2.048 0-2.048 2.048-4.096 4.096L604.16 487.424c-6.144 8.192-20.48 10.24-28.672 4.096l-112.64-77.824c-8.192-6.144-22.528-6.144-28.672 4.096L98.304 892.928c-6.144 8.192-4.096 22.528 4.096 28.672 8.192 6.144 20.48 4.096 28.672-4.096l309.248-442.368c6.144-8.192 20.48-10.24 28.672-4.096l110.592 75.776c8.192 6.144 22.528 6.144 28.672-4.096L901.12 155.648V389.12c0 12.288 8.192 20.48 20.48 20.48s20.48-8.192 20.48-20.48V143.36c0-34.816-26.624-61.44-61.44-61.44z" p-id="44566"></path></svg>