<?xml version="1.0" standalone="no"?><!DOCTYPE svg PUBLIC "-//W3C//DTD SVG 1.1//EN" "http://www.w3.org/Graphics/SVG/1.1/DTD/svg11.dtd"><svg t="1575288290436" class="icon" viewBox="0 0 1024 1024" version="1.1" xmlns="http://www.w3.org/2000/svg" p-id="35844" xmlns:xlink="http://www.w3.org/1999/xlink" width="200" height="200"><defs><style type="text/css"></style></defs><path d="M941.30688 494.94528l-11.40224-67.77344c15.68768-3.0464 27.53536-16.73728 27.53536-33.16736 0-12.9024-7.31136-24.1152-18.048-29.81376l-18.304-78.3872c8.37632-6.1696 13.81888-15.95904 13.81888-27.01824 0-18.66752-15.4368-33.80736-34.46784-33.80736a34.74944 34.74944 0 0 0-18.42176 5.26848L774.3488 148.41344c0.08704-0.98304 0.14848-1.97632 0.14848-2.97984 0-18.66752-15.2832-33.80224-34.14016-33.80224a34.1248 34.1248 0 0 0-30.95552 19.62496L579.09248 91.648a34.08384 34.08384 0 0 0-32.95744-25.088 34.16064 34.16064 0 0 0-25.40544 11.2896H366.05952A34.16576 34.16576 0 0 0 340.64896 66.56c-18.85184 0-34.12992 15.14496-34.12992 33.80736 0 1.64864 0.15872 3.26144 0.38912 4.84864L173.85472 205.57312a34.85184 34.85184 0 0 0-15.81568-3.79392c-19.03616 0-34.46784 15.14496-34.46784 33.81248 0 9.57952 4.08064 18.21184 10.61376 24.36096L91.81696 406.4768C77.28128 410.35264 66.56 423.46496 66.56 439.08608c0 16.1792 11.4944 29.69088 26.83392 33.00864l62.77632 124.04224a33.4848 33.4848 0 0 0-9.3952 23.2448c0 18.66752 15.2832 33.81248 34.13504 33.81248a34.9696 34.9696 0 0 0 5.94432-0.54272l142.74048 142.22848c2.57536 14.58688 14.66368 25.9584 29.78304 27.74016l24.67328 73.28256a31.8208 31.8208 0 0 0-20.5312 29.72672c0 17.5616 14.25408 31.81568 31.8208 31.81568s31.81568-14.25408 31.81568-31.81568a31.63136 31.63136 0 0 0-4.15232-15.67744l155.93984-207.91808c2.34496 0.54784 4.78208 0.87552 7.296 0.87552 9.32352 0 17.6896-4.0448 23.51104-10.43968l157.6704 28.3904a31.8208 31.8208 0 0 0 30.94016 24.46848 31.8208 31.8208 0 0 0 31.81056-31.81568c0-2.46784-0.31232-4.85888-0.83968-7.16288l102.72256-152.576a31.80544 31.80544 0 1 0 9.25184-58.8288zM406.39488 895.81568l-26.01472-77.27616c10.50112-5.79584 17.60768-16.80896 17.60768-29.4656 0-0.67072-0.06144-1.32096-0.1024-1.98144l159.65696-102.33344c0.9728 2.04288 2.15552 3.96288 3.52256 5.7344l-154.13248 205.52192c-0.17408-0.07168-0.3584-0.128-0.5376-0.19968zM190.17216 223.43168l128.04096-96.5632 22.34368 187.60704a34.14016 34.14016 0 0 0-29.0048 16.19968L190.19776 247.66464c1.46944-3.75296 2.304-7.81312 2.304-12.07296a33.0496 33.0496 0 0 0-2.3296-12.16zM374.784 100.4032H512a33.37216 33.37216 0 0 0 4.01408 15.85664L361.53344 297.53856l-19.46112-163.43552c18.176-0.7424 32.6912-15.52384 32.71168-33.69984zM299.71968 620.42624l-24.25856-71.90528a34.43712 34.43712 0 0 0 10.13248-7.12704l123.71968 30.56128c-0.01024 0.36352-0.05632 0.72192-0.05632 1.08544 0 9.59488 3.90144 18.28352 10.2144 24.62208l-57.63072 142.36672-38.20032-67.94752a33.3312 33.3312 0 0 0 5.41696-18.22208c-0.00512-17.0496-12.76928-31.11936-29.3376-33.4336z m117.67296-69.74464l-122.28096-30.19264c0.06144-0.83456 0.128-1.66912 0.128-2.51904 0-12.33408-6.76352-23.10144-16.82944-29.0048l69.2992-107.61728a34.1504 34.1504 0 0 0 10.61888-4.19328l68.92032 165.376a35.56864 35.56864 0 0 0-9.856 8.15104z m-94.1568-173.37344L253.99296 484.82304a34.54976 34.54976 0 0 0-17.06496 8.77568l-102.3488-50.56a33.6384 33.6384 0 0 0 0.25088-3.95264c0-1.2288-0.0768-2.44224-0.2048-3.64032l175.77984-71.53152a34.07872 34.07872 0 0 0 12.83072 13.39392zM124.4928 463.29344l102.11328 50.44736a32.8704 32.8704 0 0 0-0.29696 4.224c0 15.71328 10.9568 28.89728 25.7792 32.68608l25.08288 74.368a34.00704 34.00704 0 0 0-13.45536 15.1552l-48.75264-19.26656c0.02048-0.512 0.0768-1.01376 0.0768-1.53088 0-18.6624-15.2832-33.80224-34.13504-33.80224-1.48992 0-2.94912 0.12288-4.38784 0.31232L117.19168 468.67456a34.27328 34.27328 0 0 0 7.30112-5.38112z m81.88928 178.52928l55.94624 22.10816a34.11456 34.11456 0 0 0 32.5888 23.72608c3.64544 0 7.14752-0.57856 10.43968-1.62304l41.34912 73.5488a34.43712 34.43712 0 0 0-11.86304 10.752l-128.70144-128.24576 0.24064-0.26624z m380.76416-2.51392c-0.3072-0.01024-0.59904-0.04608-0.90624-0.04608a31.8464 31.8464 0 0 0-29.30688 19.40992l-167.9616 107.66336a34.41152 34.41152 0 0 0-10.14272-7.51104l61.13792-151.06048c1.54624 0.2048 3.10784 0.34304 4.70528 0.34304 17.31072 0 31.70304-12.32384 34.78528-28.58496l133.42208-83.49184a34.01728 34.01728 0 0 0 28.20096 10.48064l50.0736 66.11968-104.00768 66.67776zM577.05472 114.6368l130.38592 39.63392a34.01728 34.01728 0 0 0 28.86144 24.71936l48.4352 133.98016a33.67424 33.67424 0 0 0-7.84896 11.73504l-140.57472-19.85024c-3.52256-10.83904-12.48256-19.2768-23.73632-22.2976l-42.63936-157.9776a34.03776 34.03776 0 0 0 7.1168-9.94304z m188.90752 347.4688l-94.49472 6.21568a33.71008 33.71008 0 0 0-1.91488-7.74656l143.96416-90.09664a34.60608 34.60608 0 0 0 19.21536-9.0368l57.28256 25.15456c-0.5376 2.39104-0.84992 4.864-0.84992 7.40864 0 3.47648 0.53248 6.83008 1.52064 9.98912l-124.7232 58.112z m136.41728-94.76608l-59.25376-26.0352c0.18432-1.408 0.31232-2.83648 0.31232-4.29568 0-2.14016-0.22528-4.224-0.6144-6.25664l38.20544-44.032a34.7392 34.7392 0 0 0 18.19648 5.81632l16.03584 68.65408a34.16576 34.16576 0 0 0-12.88192 6.14912z m-35.11296-99.44576l-36.95616 42.60864a34.74432 34.74432 0 0 0-24.78592-7.13216l-46.80192-129.46432c2.06336-1.31072 3.9936-2.81088 5.72416-4.52096l103.36256 78.56128a33.2544 33.2544 0 0 0-1.8432 10.84416c0 3.15904 0.47616 6.20032 1.30048 9.10336zM593.152 347.392a35.02592 35.02592 0 0 0 10.32704 1.54624c14.56128 0 26.98752-8.87296 32.03584-21.39136l140.66688 19.86048a33.664 33.664 0 0 0 9.05728 14.06976l-130.43712 81.6128a33.90464 33.90464 0 0 0-17.1776-4.67456 34.14528 34.14528 0 0 0-34.14016 34.14016l0.01024 0.2304-0.88064 0.05632 0.18944 2.78016-124.3392 77.80864 114.688-206.03904z m117.71904 216.25856l-50.06336-66.09408a34.18112 34.18112 0 0 0 5.33504-6.272l109.30176-7.18848-0.0512-0.77824 130.0224-60.55424c0.80384 0.49664 1.62816 0.96256 2.47808 1.38752l11.33056 67.28704a31.8464 31.8464 0 0 0-25.4208 31.17568c0 2.7392 0.384 5.38624 1.03424 7.92064l-183.96672 33.11616zM548.85888 134.0416l40.53504 150.25664c-12.01152 5.28384-20.38784 17.09056-20.38784 30.83264 0 6.8608 2.0992 13.2352 5.67808 18.56512l-115.44576 207.40096a35.54304 35.54304 0 0 0-8.98048-2.65216L374.08256 355.69152l-0.16896 0.06656c0.55296-2.41152 0.8704-4.91008 0.8704-7.48544a33.46944 33.46944 0 0 0-8.05888-21.7856l166.144-194.95936a34.3296 34.3296 0 0 0 13.26592 2.65216c0.9216-0.00512 1.82272-0.07168 2.72384-0.13824zM158.03392 269.39392a34.7648 34.7648 0 0 0 17.18784-4.5312l118.84032 81.28512-169.35936 68.9152a34.1504 34.1504 0 0 0-9.69728-6.64064l40.24832-139.16672c0.91648 0.0768 1.8432 0.13824 2.78016 0.13824z m452.6336 381.32224l103.424-66.28864 194.45248-35.01056c0.22016 0.14336 0.44544 0.27648 0.67584 0.4096l-92.66176 137.61536a31.6416 31.6416 0 0 0-18.2016-5.74464 31.80544 31.80544 0 0 0-28.73344 18.21696l-151.64416-27.29984c0.02048-0.512 0.0768-1.00864 0.0768-1.52576a31.68256 31.68256 0 0 0-7.38816-20.37248z" fill="" p-id="35845"></path></svg>