<?xml version="1.0" standalone="no"?><!DOCTYPE svg PUBLIC "-//W3C//DTD SVG 1.1//EN" "http://www.w3.org/Graphics/SVG/1.1/DTD/svg11.dtd"><svg t="1575440636432" class="icon" viewBox="0 0 1462 1024" version="1.1" xmlns="http://www.w3.org/2000/svg" p-id="16823" xmlns:xlink="http://www.w3.org/1999/xlink" width="285.546875" height="200"><defs><style type="text/css"></style></defs><path d="M939.52 189.184L612.736 27.904a294.4 294.4 0 0 0-252.928 1.536L33.28 192.768a53.632 53.632 0 0 0 0 99.2l140.8 69.632v185.856a25.6 25.6 0 0 0 7.424 17.92 451.968 451.968 0 0 0 304.64 115.2 445.184 445.184 0 0 0 304.128-115.2 68.992 68.992 0 0 0 7.424-10.368V359.808l39.424-19.712 51.2-25.6 51.2-25.6a54.144 54.144 0 0 0 0-99.84z m-192 347.008a368.896 368.896 0 0 1-64 43.392 412.928 412.928 0 0 1-394.112 0 371.2 371.2 0 0 1-64-43.392V386.688l27.648 13.696v70.784a25.6 25.6 0 0 0 51.2 0v-45.824l102.4 50.432a189.696 189.696 0 0 0 160.896 0l180.48-90.368z m169.344-292.864l-57.216 28.672-117.248 58.88-198.144 99.328a134.272 134.272 0 0 1-115.2 0L55.808 246.4a12.8 12.8 0 0 1-4.992-3.84c0-0.64 1.536-2.56 5.12-4.352L382.592 74.88a235.904 235.904 0 0 1 105.728-23.552 231.552 231.552 0 0 1 102.4 22.784l326.144 160.512c3.84 1.92 5.12 3.84 5.12 4.352s-1.28 2.688-5.12 4.352z" fill="#000000" p-id="16824" data-spm-anchor-id="a313x.7781069.0.i6" class="selected"></path><path d="M887.168 493.568V330.112a64 64 0 0 0-51.2-62.848L576 212.864c-4.736-34.688-42.112-60.928-89.6-60.928-50.304 0-89.6 29.952-89.6 68.352s39.424 68.224 89.6 68.224a100.48 100.48 0 0 0 72.32-27.392l246.4 51.2a38.4 38.4 0 0 1 30.592 37.632v144.64a51.2 51.2 0 0 0-24.96 43.904v152.832a25.6 25.6 0 0 0 25.6 25.6h51.2a25.6 25.6 0 0 0 25.6-25.6V538.88a51.2 51.2 0 0 0-25.984-45.312z m-400-256c-25.6 0-38.4-12.8-38.4-17.024s13.568-17.024 38.4-17.024 38.4 12.032 38.4 17.024-13.568 16.768-38.4 16.768z" fill="#000000" p-id="16825" data-spm-anchor-id="a313x.7781069.0.i5" class="selected"></path></svg>