<?xml version="1.0" standalone="no"?><!DOCTYPE svg PUBLIC "-//W3C//DTD SVG 1.1//EN" "http://www.w3.org/Graphics/SVG/1.1/DTD/svg11.dtd"><svg t="1575287703645" class="icon" viewBox="0 0 1024 1024" version="1.1" xmlns="http://www.w3.org/2000/svg" p-id="18719" xmlns:xlink="http://www.w3.org/1999/xlink" width="200" height="200"><defs><style type="text/css"></style></defs><path d="M393.368112 199.052498h228.889038L739.493248 56.694233s0-50.244334-64.200185-13.956873h-44.661175s-48.546669-83.248006-118.630865-13.163811h-26.517957s-50.640354-55.43045-106.070804 0h-25.122167s-89.322351-31.497365-75.365478 27.120684l114.443495 142.358265zM641.796158 271.626397H384.994398S119.818923 483.766982 119.818923 684.743296s189.809997 337.750397 393.576867 337.750397 390.785288-147.9404 390.785287-348.915691-262.384919-401.951605-262.384919-401.951605z m-26.202778 211.415061l-83.058695 83.058694v17.958001h51.871392c15.425318 0 27.930119 12.504802 27.930119 27.931142s-12.504802 27.930119-27.930119 27.93012h-51.871392v48.811705h51.871392c15.425318 0 27.930119 12.504802 27.930119 27.931143s-12.504802 27.930119-27.930119 27.930119h-51.871392v88.349188c0 13.09218-12.861936 23.705911-28.728298 23.705911s-28.729322-10.613732-28.729321-23.705911v-88.349188h-51.871391c-15.425318 0-27.931143-12.504802-27.931143-27.930119s12.504802-27.931143 27.931143-27.931143h51.871391v-48.811705h-51.871391c-15.425318 0-27.931143-12.504802-27.931143-27.93012s12.504802-27.931143 27.931143-27.931142h51.871391v-17.492397l-66.863851-66.86385c-7.824199-7.824199-5.324262-23.00904 5.583159-33.916461 10.907421-10.907421 26.092261-13.407358 33.916461-5.583158l55.861262 55.860239 72.519663-72.519664c9.182127-9.182127 25.469068-7.78429 36.376489 3.12313 10.907421 10.906397 12.305257 27.192316 3.123131 36.375466z" fill="#282B34" p-id="18720"></path></svg>