<?xml version="1.0" standalone="no"?><!DOCTYPE svg PUBLIC "-//W3C//DTD SVG 1.1//EN" "http://www.w3.org/Graphics/SVG/1.1/DTD/svg11.dtd"><svg t="1575287802203" class="icon" viewBox="0 0 1024 1024" version="1.1" xmlns="http://www.w3.org/2000/svg" p-id="21070" xmlns:xlink="http://www.w3.org/1999/xlink" width="200" height="200"><defs><style type="text/css"></style></defs><path d="M372.183899 818.774919c14.311538-51.883671 81.991757-91.175559 163.336758-91.175559 79.288069 0 145.592907 37.331233 162.148649 87.265506 86.325641-44.210921 121.950472-126.052904 148.394837-219.394802L203.646481 595.470063C230.889059 691.629123 280.839754 775.59549 372.183899 818.774919z" p-id="21071"></path><path d="M535.144064 759.279896c-63.712695 0-117.657522 29.67588-135.927374 70.619384 35.937975 12.739139 77.518698 19.791765 125.639645 19.791765 58.798572 0 106.228759-8.065699 144.925683-22.538319C650.364992 787.635711 597.423047 759.279896 535.144064 759.279896z" p-id="21072"></path><path d="M628.314888 450.434829l191.248606 0c17.603652 0 31.874256-14.270005 31.874256-31.872918 0-17.602913-14.270604-31.872918-31.874256-31.872918L702.363409 386.688993l100.469349-109.181655c12.284283-13.350053 11.420577-34.130332-1.930036-46.414099-13.350613-12.283768-34.131764-11.420097-46.416047 1.929955L605.116586 395.344117c-5.925192 6.438643-8.781359 14.605649-8.663674 22.714328-0.00307 0.167822-0.01228 0.334621-0.01228 0.503467C596.440632 436.164824 610.711236 450.434829 628.314888 450.434829z" p-id="21073"></path><path d="M265.131344 484.20291c33.957795 0 61.485887-27.526937 61.485887-61.483306L326.617231 282.005792c0-33.95637-27.528092-61.483306-61.485887-61.483306-33.957795 0-61.485887 27.526937-61.485887 61.483306l0 140.713812C203.646481 456.675974 231.174573 484.20291 265.131344 484.20291z" p-id="21074"></path></svg>