<?xml version="1.0" standalone="no"?><!DOCTYPE svg PUBLIC "-//W3C//DTD SVG 1.1//EN" "http://www.w3.org/Graphics/SVG/1.1/DTD/svg11.dtd"><svg t="1575639900013" class="icon" viewBox="0 0 1024 1024" version="1.1" xmlns="http://www.w3.org/2000/svg" p-id="4471" xmlns:xlink="http://www.w3.org/1999/xlink" width="200" height="200"><defs><style type="text/css"></style></defs><path d="M924.32516 46.809156c0.018264 0.016437 0.034701 0.032874 0.052964 0.047485s0.036527 0.031048 0.052964 0.047485L924.32516 46.809156z" p-id="4472"></path><path d="M937.982655 304.935451c67.49849-74.92263 61.285225-190.556577-13.604531-258.078809-74.940894-67.463789-190.277144-61.334536-257.775634 13.588094l-537.880305 597.037824c-0.64653 0.717758-1.630937 0.989885-2.841811 2.356l-0.027395-0.023743-85.009598 307.552985c-9.802056 35.464194 25.088662 66.897619 59.341981 53.461113l297.047782-116.525209-0.027395-0.023743c1.232791-1.346025 2.250071-1.58893 2.896602-2.306688L937.982655 304.935451zM691.539564 141.909375l36.636715 33.005918L261.198793 693.253581l-36.636715-33.005918L691.539564 141.909375zM117.294671 942.175038l30.352222-112.773872 78.653877 70.860813L117.294671 942.175038zM345.826682 853.076228c-0.648357 0.719585-1.682075 0.9424-2.923997 2.282946l0.054791 0.049312-78.409145 30.14767-106.251952-95.724833 21.832268-81.117632 0.054791 0.049312c1.203569-1.37342 2.166059-1.660158 2.814416-2.379743l17.114788-18.995936 162.82883 146.694795L345.826682 853.076228zM387.390907 806.940632l-36.636715-33.005918 63.568171-70.559464c6.752041-7.493541 6.140211-19.050727-1.355157-25.802767l0.005479 0.003653c-7.493541-6.752041-19.036116-6.14569-25.788156 1.349678l-63.568171 70.559464-35.279732-31.784085 466.977486-518.336462 35.279732 31.784085L444.028054 615.830669c-6.752041 7.493541-6.160301 19.032463 1.335067 25.784504l0.005479 0.005479c7.493541 6.752041 19.047074 6.154822 25.799114-1.340546l346.56579-384.681854 36.636715 33.005918L387.390907 806.940632zM878.81783 261.466336l-162.82883-146.694795 4.889157-5.427932c40.508591-44.963075 109.585053-48.767376 154.549955-8.258785l0.105929 0.094971c44.963075 40.508591 48.681537 109.893708 8.172946 154.856783L878.81783 261.466336z" p-id="4473"></path></svg>