<?xml version="1.0" standalone="no"?><!DOCTYPE svg PUBLIC "-//W3C//DTD SVG 1.1//EN" "http://www.w3.org/Graphics/SVG/1.1/DTD/svg11.dtd"><svg t="1575465494762" class="icon" viewBox="0 0 1024 1024" version="1.1" xmlns="http://www.w3.org/2000/svg" p-id="4674" xmlns:xlink="http://www.w3.org/1999/xlink" width="200" height="200"><defs><style type="text/css"></style></defs><path d="M819.2 993.3h-615c-39.3 0-71.2-32-71.2-71.2V102.7c0-39.3 32-71.2 71.2-71.2h615c39.3 0 71.2 32 71.2 71.2V922c0 39.3-31.9 71.3-71.2 71.3z m-615-918.8c-15.6 0-28.2 12.7-28.2 28.2V922c0 15.6 12.7 28.2 28.2 28.2h615c15.6 0 28.2-12.7 28.2-28.2V102.7c0-15.6-12.7-28.2-28.2-28.2h-615z" p-id="4675"></path><path d="M753.5 798.6c-3.2-49.7-21.9-97.5-53.6-136.2l-0.7-0.8V371.2c0-98.8-80.1-178.9-178.9-178.9h-5.4c-42.5 0-85.2 15.3-117.3 42.2-36.6 24.3-58.5 65.1-58.5 109.1v306.9l-0.8 0.8c-37.8 40.7-60.1 92.6-63.6 147.3-0.4 6.8 5.2 12.4 12 12.4h17.9c6.4 0 11.4-5 11.8-11.3 3.7-50.1 26.6-97.5 64.3-131.8l1-0.9c36.5-32.8 83.5-50.9 132.4-50.9 12.8 0 25.8 1.3 38.6 3.8l2.3 0.5v86.9c0 8 6.5 14.5 14.5 14.4l119-1.4 0.8 1.5c12.7 24.1 20.3 50.8 22.3 77.9 0.5 6.3 5.5 11.3 11.8 11.3h17.9c7 0 12.6-5.7 12.2-12.4zM555.1 578.1l-3.3-0.5c-13.8-2.2-26.1-3.2-37.6-3.2-45.7 0-90.2 13-128.9 37.7l-4.4 2.8V509.1l4.8 4.3c20.7 18.6 46.3 30.3 73.3 34 8 1.1 15.2-5.2 15.2-13.3v-15.2c0-6.5-4.7-12.1-11.2-13.1-46.4-6.9-82.1-47.6-82.1-96.5v-15.7h174.3v184.5z m0-226.2H380.9v-8.4c0-30.2 15-58.1 40.1-74.6l2.4-1.2 0.1 0.1c28.4-16.6 71.9-16.6 102.2 7.9 19.5 15.8 29.4 40.6 29.4 65.7v10.5z m44 327.4l-0.1-44.1V343.5c0-38.6-16.9-75.1-46.3-100l2.6-5c60 16 101.9 70.6 101.9 132.6V546h0.1V679.3h-58.2z" p-id="4676"></path></svg>