<?xml version="1.0" standalone="no"?><!DOCTYPE svg PUBLIC "-//W3C//DTD SVG 1.1//EN" "http://www.w3.org/Graphics/SVG/1.1/DTD/svg11.dtd"><svg t="1575465488093" class="icon" viewBox="0 0 1024 1024" version="1.1" xmlns="http://www.w3.org/2000/svg" p-id="4547" xmlns:xlink="http://www.w3.org/1999/xlink" width="200" height="200"><defs><style type="text/css"></style></defs><path d="M807.936 159.84c8.768 0 22.912 4.352 36.576 8.576 17.088 5.28 34.752 10.688 50.176 10.688 53.92 0 90.112-36 90.112-89.536C984.8 38.496 946.048 0 894.688 0c-30.176 0-122.08 0-173.504 66.912-9.088 11.808-15.968 24.704-21.056 38.432-0.224-8.672-7.232-15.616-15.936-15.616-8.832 0-16 7.168-16 16l0 82.624-82.784 0L585.408 67.456c0-8.832-7.168-16-16-16s-16 7.168-16 16l0 120.896-82.816 0L470.592 67.456c0-8.832-7.168-16-16-16s-16 7.168-16 16l0 120.896-82.784 0L355.808 105.728c0-8.832-7.168-16-16-16-8.704 0-15.712 6.944-15.936 15.616C318.784 91.616 311.904 78.72 302.816 66.912 251.424 0 159.52 0 129.312 0 77.952 0 39.2 38.496 39.2 89.536c0 53.568 36.224 89.536 90.112 89.536 15.424 0 33.12-5.44 50.208-10.688C193.184 164.16 207.328 159.84 216.096 159.84c1.632 0 2.592 0.16 2.976 0.096 0.736 2.592 2.624 16.16-18.656 63.328C192.32 241.184 181.632 261.728 169.952 284.096 129.728 361.28 79.68 457.344 79.68 548.768c0 148.416 59.776 262.624 169.984 328.416L244.16 877.184c-29.92 0-49.312 39.744-52.896 47.712-0.928 2.048-1.408 4.32-1.408 6.56L189.856 1008c0 8.832 7.168 16 16 16l612.32 0c8.832 0 16-7.168 16-16l0-76.544c0-29.952-24.352-54.272-54.272-54.272l-5.504 0c110.176-65.792 169.952-180 169.952-328.416 0-91.424-50.016-187.424-90.208-264.576-11.648-22.432-22.368-42.976-30.464-60.928-23.264-51.616-18.848-63.008-19.296-63.008C804.48 160.192 805.472 159.84 807.936 159.84zM768.992 548.768c0 74.592-23.2 130.016-68.8 166.432L700.192 230.016c3.872 13.856 9.312 31.136 15.68 51.104C751.616 393.376 768.992 480.96 768.992 548.768zM668.192 220.352l0 515.616c-23.424 11.968-51.232 20.256-82.784 25.248L585.408 220.352 668.192 220.352zM553.408 220.352l0 544.64c-13.28 1.056-26.912 1.792-41.408 1.792s-28.128-0.704-41.408-1.792L470.592 220.352 553.408 220.352zM438.592 220.352l0 540.864c-31.552-4.992-59.328-13.28-82.784-25.248L355.808 220.352 438.592 220.352zM308.16 281.12C314.528 261.12 319.968 243.84 323.808 230.016l0 485.216c-45.632-36.416-68.8-91.84-68.8-166.432C255.008 481.024 272.384 393.44 308.16 281.12zM794.432 236.416c8.32 18.432 19.328 39.552 31.296 62.56 38.592 74.048 86.592 166.208 86.592 249.792 0 163.36-74.048 277.28-214.144 329.408-7.264 2.72-11.52 10.208-10.144 17.856s8 13.152 15.744 13.152l76.128 0c12.288 0 22.272 10.016 22.272 22.272L802.176 992 221.856 992l0-56.896c6.752-13.504 17.312-25.92 22.304-25.92l76.128 0c7.744 0 14.368-5.536 15.744-13.152s-2.912-15.136-10.176-17.856C185.76 826.048 111.68 712.16 111.68 548.768c0-83.616 48.032-175.808 86.656-249.888 12-22.976 22.944-44.064 31.264-62.464C251.808 187.136 256.64 158.912 245.792 142.144c-4.224-6.528-12.8-14.304-29.696-14.304-13.6 0-29.344 4.832-45.984 9.984C155.264 142.368 139.936 147.104 129.312 147.104c-35.872 0-58.112-22.048-58.112-57.536C71.2 56.192 95.616 32 129.312 32 158.4 32 235.648 32 277.44 86.4c25.984 33.792 31.296 78.944 15.776 134.272C289.408 234.304 284 251.52 277.664 271.392c-36.768 115.552-54.656 206.272-54.656 277.376 0 206.624 157.152 250.016 288.992 250.016s288.992-43.36 288.992-250.016c0-71.168-17.888-161.92-54.624-277.376-6.336-19.872-11.776-37.088-15.584-50.72-15.456-55.328-10.176-100.48 15.776-134.24C788.352 32 865.6 32 894.688 32c33.696 0 58.112 24.192 58.112 57.536 0 35.488-22.272 57.536-58.112 57.536-10.624 0-25.952-4.704-40.768-9.28-16.672-5.152-32.384-9.984-45.984-9.984-16.896 0-25.472 7.776-29.696 14.304C767.36 158.944 772.224 187.136 794.432 236.416z" p-id="4548"></path></svg>