<?xml version="1.0" standalone="no"?><!DOCTYPE svg PUBLIC "-//W3C//DTD SVG 1.1//EN" "http://www.w3.org/Graphics/SVG/1.1/DTD/svg11.dtd"><svg t="1579173934139" class="icon" viewBox="0 0 1082 1024" version="1.1" xmlns="http://www.w3.org/2000/svg" p-id="14507" xmlns:xlink="http://www.w3.org/1999/xlink" width="211.328125" height="200"><defs><style type="text/css"></style></defs><path d="M194.13 335.484l390.597 556.368-100.573 19.296-127.47-181.85-251.726 48.824L49.41 994.764 0 1004.704l168.694-664.25zM116.944 735.73l216.35-41.808-151.737-214.887zM425.39 22.07l192.96-19.88a286.808 286.808 0 0 1 70.751 0 184.481 184.481 0 0 1 58.473 18.711 114.314 114.314 0 0 1 38.3 35.376 94.141 94.141 0 0 1 17.834 47.363 134.487 134.487 0 0 1 0 35.96 90.633 90.633 0 0 1-11.402 30.699 121.33 121.33 0 0 1-23.974 29.236 348.79 348.79 0 0 1-39.762 29.237 159.923 159.923 0 0 1 47.363 9.648 111.39 111.39 0 0 1 38.008 21.927 102.62 102.62 0 0 1 25.143 32.745 134.487 134.487 0 0 1 12.571 43.562 113.437 113.437 0 0 1-7.016 52.625 123.085 123.085 0 0 1-29.237 45.609 159.338 159.338 0 0 1-50.286 33.622 218.103 218.103 0 0 1-68.413 17.25l-223.95 23.096z m102.327 210.502l102.327-10.817a136.826 136.826 0 0 0 42.393-11.402 89.463 89.463 0 0 0 29.236-22.512 78.646 78.646 0 0 0 16.372-31.575 103.789 103.789 0 0 0 4.093-38.592 83.324 83.324 0 0 0-11.986-37.715 75.43 75.43 0 0 0-29.237-26.898 124.547 124.547 0 0 0-44.147-14.618 253.771 253.771 0 0 0-62.565 0l-66.367 7.017z m23.389 231.552l87.709-9.063a273.36 273.36 0 0 0 59.934-12.864 123.67 123.67 0 0 0 40.347-23.681 83.616 83.616 0 0 0 21.05-31.868 87.709 87.709 0 0 0 4.385-38.592 130.686 130.686 0 0 0-11.402-42.393 81.862 81.862 0 0 0-27.19-32.16 123.67 123.67 0 0 0-45.608-18.711 217.81 217.81 0 0 0-65.782-2.047l-84.786 9.064z m171.91 311.952a242.37 242.37 0 0 0 2.63 83.323 173.664 173.664 0 0 0 29.237 66.075 157.876 157.876 0 0 0 50.579 45.608 183.02 183.02 0 0 0 68.413 22.512 102.912 102.912 0 0 0 44.147-3.216 149.69 149.69 0 0 0 41.808-17.834 192.667 192.667 0 0 0 35.96-27.482 255.526 255.526 0 0 0 29.237-32.745l27.19 23.682a292.363 292.363 0 0 1-36.546 37.715 230.382 230.382 0 0 1-46.193 29.236 199.1 199.1 0 0 1-56.134 17.25 216.934 216.934 0 0 1-67.536 0 255.818 255.818 0 0 1-65.197-17.25 250.263 250.263 0 0 1-54.38-30.698 219.565 219.565 0 0 1-42.392-41.808 223.658 223.658 0 0 1-29.236-50.58 211.671 211.671 0 0 1-14.619-56.425 240.615 240.615 0 0 1 0-60.227 204.654 204.654 0 0 1 15.788-58.473 212.548 212.548 0 0 1 29.236-50.579 233.89 233.89 0 0 1 41.808-41.808 222.196 222.196 0 0 1 52.333-29.236 233.89 233.89 0 0 1 61.397-15.495 271.02 271.02 0 0 1 68.413 0 201.73 201.73 0 0 1 61.396 17.834 218.688 218.688 0 0 1 49.41 32.16 204.654 204.654 0 0 1 37.422 40.93 283.3 283.3 0 0 1 24.558 47.656l-33.621 16.665a217.226 217.226 0 0 0-49.995-85.37 125.424 125.424 0 0 0-72.798-34.792 175.418 175.418 0 0 0-70.752 4.386 169.57 169.57 0 0 0-61.396 31.575 181.558 181.558 0 0 0-45.609 56.426 228.043 228.043 0 0 0-24.266 80.985z" p-id="14508"></path></svg>