<?xml version="1.0" standalone="no"?><!DOCTYPE svg PUBLIC "-//W3C//DTD SVG 1.1//EN" "http://www.w3.org/Graphics/SVG/1.1/DTD/svg11.dtd"><svg t="1575288165981" class="icon" viewBox="0 0 1024 1024" version="1.1" xmlns="http://www.w3.org/2000/svg" p-id="28739" xmlns:xlink="http://www.w3.org/1999/xlink" width="200" height="200"><defs><style type="text/css"></style></defs><path d="M372.675765 581.692235a36.141176 36.141176 0 0 0-51.139765 51.019294l156.129882 155.888942a35.84 35.84 0 0 0 25.539765 10.541176 36.020706 36.020706 0 0 0 25.539765-61.560471L372.675765 581.692235z m281.72047 30.298353L498.326588 456.101647a35.84 35.84 0 0 0-25.6-10.541176 36.020706 36.020706 0 0 0-25.539764 61.56047l156.129882 155.888941a35.84 35.84 0 0 0 25.539765 10.480942 36.020706 36.020706 0 0 0 25.539764-61.560471z" p-id="28740"></path><path d="M1014.964706 212.690824c0-53.248-21.383529-104.146824-60.355765-142.998589l-1.325176-1.325176a202.209882 202.209882 0 0 0-281.118118-6.505412l-0.180706-0.180706-556.754823 555.791059-54.031059 54.091294a69.571765 69.571765 0 0 0-19.636706 39.152941l-31.623529 225.28c-3.132235 21.684706 4.216471 43.068235 19.636705 58.488471a68.909176 68.909176 0 0 0 58.669177 19.456l223.834353-32.64753 0.602353-0.180705c14.516706-2.228706 28.310588-9.035294 38.731294-19.395765l84.510118-84.389647 5.360941-5.360941 399.600941-398.817883 115.531294-115.410823 5.180235-5.300706-0.12047-0.180706c14.576941-16.022588 26.443294-34.695529 35.358117-55.597176 11.866353-26.443294 18.070588-54.753882 18.070589-83.968z m-132.517647 139.745882l-36.261647 36.141176h-0.120471l-444.295529 443.934118-211.365647-211.064471 480.858353-480.075294L882.447059 352.376471zM96.978824 718.305882a13.131294 13.131294 0 0 1 3.734588-7.408941l48.850823-48.790588 211.365647 211.184941-49.031529 48.971294a14.155294 14.155294 0 0 1-7.408941 3.674353l-224.256 32.64753h-0.301177a11.986824 11.986824 0 0 1-10.842353-3.674353 12.890353 12.890353 0 0 1-3.734588-11.14353l31.62353-225.460706zM913.468235 107.700706l1.505883 1.445647c27.949176 28.491294 43.851294 66.198588 43.851294 103.424 0 4.156235-0.180706 8.553412-0.602353 13.010823l-0.481883 2.831059c-4.156235 32.768-16.865882 62.283294-36.080941 84.088471L710.776471 101.918118a148.48 148.48 0 0 1 99.207529-37.948236c37.406118 0 75.173647 15.962353 103.484235 43.730824z" p-id="28741"></path></svg>