<?xml version="1.0" standalone="no"?><!DOCTYPE svg PUBLIC "-//W3C//DTD SVG 1.1//EN" "http://www.w3.org/Graphics/SVG/1.1/DTD/svg11.dtd"><svg t="1579173500539" class="icon" viewBox="0 0 1024 1024" version="1.1" xmlns="http://www.w3.org/2000/svg" p-id="8758" xmlns:xlink="http://www.w3.org/1999/xlink" width="200" height="200"><defs><style type="text/css"></style></defs><path d="M889.38 497.169l-28.18 20.764c24.555 33.289 37.573 71.686 37.573 111.237 0 70.368-41.364 135.626-110.742 174.518-5.438 3.131-8.899 8.899-8.899 15.161v52.075l-6.098-3.955c-0.495-0.495-1.153-0.989-1.813-1.483l-46.638-30.982c-3.955-2.637-8.735-3.461-13.349-2.471-81.904 17.138-161.169-1.483-220.33-45.813l-20.929 27.85c65.258 48.779 152.107 69.873 241.26 53.393l38.562 25.543c0.659 0.495 1.318 0.989 1.977 1.483l35.266 23.237c2.966 1.977 6.263 2.966 9.724 2.966 2.802 0 5.603-0.659 8.24-2.143 5.603-2.966 9.229-8.899 9.229-15.326v-74.487c74.982-45.813 119.641-119.806 119.641-199.732-0.165-46.966-15.49-92.615-44.495-131.836z" p-id="8759"></path><path d="M467.505 106.604c-207.971 0-377.38 146.833-377.38 327.283 0 108.271 60.974 208.301 163.477 269.604v105.469c0 6.428 3.46 12.195 9.229 15.326 2.637 1.483 5.438 2.143 8.24 2.143 3.296 0 6.757-0.989 9.724-2.966l48.121-31.641c0.825-0.495 1.483-1.153 2.307-1.812l55.372-36.75c27.356 5.273 54.547 7.911 81.079 7.911 208.135 0 377.38-146.833 377.38-327.283s-169.409-327.283-377.545-327.283zM467.505 728.047c-24.39 0-49.604-2.471-74.817-7.251l-13.184-2.473-68.391 45.319-1.154 0.989-23.237 15.326v-95.417l-15.984-9.558c-45.813-27.356-83.552-63.94-108.93-105.963-25.378-41.364-38.727-88.165-38.727-135.132 0-162.323 154.578-294.323 344.422-294.323 189.844 0 344.422 132.001 344.422 294.323 0 162.158-154.414 294.159-344.422 294.159z" p-id="8760"></path></svg>