<?xml version="1.0" standalone="no"?><!DOCTYPE svg PUBLIC "-//W3C//DTD SVG 1.1//EN" "http://www.w3.org/Graphics/SVG/1.1/DTD/svg11.dtd"><svg t="1579173813367" class="icon" viewBox="0 0 1024 1024" version="1.1" xmlns="http://www.w3.org/2000/svg" p-id="13624" xmlns:xlink="http://www.w3.org/1999/xlink" width="200" height="200"><defs><style type="text/css"></style></defs><path d="M511.999 892.243c-31.93 0-63.855-2.9-94.335-8.705L195.61 1018.513 195.61 795.008C79.505 713.733 5.485 588.919 5.485 449.589c0-245.274 226.409-444.104 506.514-444.104 280.114 0 506.514 198.829 506.514 444.104C1018.512 694.858 792.113 892.243 511.999 892.243zM511.999 69.34c-245.274 0-444.104 169.805-444.104 380.249 0 129.17 75.465 242.374 188.67 310.579l0 148.04 149.49-89.98c34.83 7.26 69.665 11.615 107.4 11.615 245.274 0 444.104-169.81 444.104-380.254C956.113 239.144 757.278 69.34 511.999 69.34zM734.058 417.664 289.944 417.664c-17.41 0-31.93-14.515-31.93-31.93 0-17.42 14.52-31.93 31.93-31.93l444.114 0c17.41 0 31.93 14.51 31.93 31.93C765.988 403.149 751.468 417.664 734.058 417.664zM353.804 543.924l316.394 0c17.41 0 31.925 14.52 31.925 31.93 0 17.42-14.515 31.935-31.925 31.935L353.804 607.789c-17.415 0-31.925-14.515-31.925-31.935C321.879 558.444 336.389 543.924 353.804 543.924z" p-id="13625"></path></svg>