<?xml version="1.0" standalone="no"?><!DOCTYPE svg PUBLIC "-//W3C//DTD SVG 1.1//EN" "http://www.w3.org/Graphics/SVG/1.1/DTD/svg11.dtd"><svg t="1575287390506" class="icon" viewBox="0 0 1024 1024" version="1.1" xmlns="http://www.w3.org/2000/svg" p-id="15564" xmlns:xlink="http://www.w3.org/1999/xlink" width="200" height="200"><defs><style type="text/css"></style></defs><path d="M849.3 135.2c-2.8 0-5.7 0.3-8.5 0.9l-336 75.3-336-75.3c-2.8-0.6-5.6-0.9-8.5-0.9-44.4 0-79.2 40.1-79.2 91.4v548.1c0 49.3 32.2 88.3 74.2 91.1l340 76.2c2.8 0.7 5.6 0.9 8.4 0.9h2c2.8 0 5.6-0.3 8.5-0.9l340.1-76.2c42-2.9 74.2-41.9 74.2-91.1V226.6c0-51.3-34.8-91.4-79.2-91.4zM465.1 856.4L168.8 790c-1.2-0.3-1.9-0.4-2.5-0.4-0.7 0-1.4 0.1-3 0.1-1.3-0.9-5-6.2-5-15.1v-548c0-6.7 2.1-11.4 2.4-13.4l304.4 68.2v575z m386.2-81.7c0 8.9-3.7 14.2-2 14.4-2.8 0-5.7 0.3-8.5 0.9l-296.4 66.4v-575l303.5-68c1.5 2.4 3.3 6.9 3.3 13.2v548.1z" p-id="15565"></path></svg>