<?xml version="1.0" standalone="no"?><!DOCTYPE svg PUBLIC "-//W3C//DTD SVG 1.1//EN" "http://www.w3.org/Graphics/SVG/1.1/DTD/svg11.dtd"><svg t="1575459466173" class="icon" viewBox="0 0 1024 1024" version="1.1" xmlns="http://www.w3.org/2000/svg" p-id="4255" xmlns:xlink="http://www.w3.org/1999/xlink" width="200" height="200"><defs><style type="text/css"></style></defs><path d="M106.15466667 801.90577778c-25.6 0-46.42133333 20.82133333-46.42133334 46.42133333 0 25.6 20.70755555 46.42133333 46.42133334 46.42133334h811.46311111c25.6 0 46.30755555-20.82133333 46.30755555-46.42133334 0-25.6-20.70755555-46.42133333-46.30755555-46.42133333h-11.60533333V384.45511111h11.60533333c12.74311111 0 23.21066667-10.46755555 23.21066667-23.21066666s-10.35377778-23.09688889-23.21066667-23.0968889H106.15466667c-12.74311111 0-23.09688889 10.35377778-23.09688889 23.0968889 0 12.74311111 10.35377778 23.21066667 23.09688889 23.21066666h11.60533333v417.33688889h-11.60533333v0.11377778z m568.09244444-417.45066667h139.15022222v417.33688889H674.24711111V384.45511111z m-231.87911111 0H581.40444445v417.33688889H442.368V384.45511111z m-231.87911111 0h139.15022222v417.33688889H210.48888889V384.45511111z m-162.24711111-81.12355556h927.51644444c25.6 0 46.42133333-20.82133333 46.42133333-46.42133333 0-20.36622222-13.08444445-37.66044445-31.40266666-43.91822222l-459.88977778-207.07555555c-12.06044445-5.46133333-25.94133333-5.46133333-38.00177778 0L29.24088889 214.69866667c-19.91111111 8.98844445-30.94755555 30.60622222-26.28266667 51.99644444 4.55111111 21.39022222 23.43822222 36.63644445 45.28355556 36.63644444z m927.40266667 626.00533334h-927.2888889c-25.6 0-46.42133333 20.82133333-46.42133333 46.42133333 0 25.6 20.70755555 46.30755555 46.42133333 46.30755556h927.2888889c25.6 0 46.42133333-20.82133333 46.42133333-46.30755556-0.11377778-25.6-20.82133333-46.42133333-46.42133333-46.42133333z" p-id="4256"></path></svg>