<?xml version="1.0" standalone="no"?><!DOCTYPE svg PUBLIC "-//W3C//DTD SVG 1.1//EN" "http://www.w3.org/Graphics/SVG/1.1/DTD/svg11.dtd"><svg t="1575440449171" class="icon" viewBox="0 0 1024 1024" version="1.1" xmlns="http://www.w3.org/2000/svg" p-id="13585" xmlns:xlink="http://www.w3.org/1999/xlink" width="200" height="200"><defs><style type="text/css"></style></defs><path d="M 650.849 746.581 c -3.6432 -0.8976 -6.7344 -1.6464 -10.0752 -2.4528 c -0.1824 -6.1008 -0.3168 -11.9712 -0.5616 -17.8224 c -0.072 -1.6656 0.648 -2.5584 2.0352 -3.2736 c 2.496 -1.272 4.9056 -2.664 7.6416 -4.1616 v -20.1168 c -4.8144 -0.9264 -9.85444 -1.8864 -15.4896 -2.9616 a 2.0231e+006 2.0231e+006 0 0 0 -76.6224 148.118 l 30.5616 6.4464 c 0.288 10.2144 0.5568 20.2512 0.8448 30.3984 c -1.1904 0.7632 -2.2032 1.4736 -3.2784 2.0976 c -8.8752 5.0544 -17.8032 10.0272 -26.6112 15.2016 c -2.232 1.3104 -4.2576 1.5888 -6.7104 0.9888 c -6.1104 -1.4784 -12.2928 -2.6784 -18.384 -4.1904 c -2.52 -0.6336 -4.3344 -0.2544 -6.432 1.464 c -8.3232 6.8352 -17.6832 11.7552 -28.3008 14.0544 c -7.632 1.6416 -15.2544 1.9248 -22.8624 -0.0912 c -4.2 -1.1184 -5.8848 -4.3632 -3.9072 -8.2704 c 1.032 -2.0448 2.6304 -4.0896 4.4976 -5.3808 c 3.6672 -2.52 7.68 -4.5408 11.5968 -6.6816 c 1.5744 -0.8736 3.2784 -1.488 5.568 -2.4912 c -1.2912 -0.48 -1.9488 -0.8592 -2.6496 -0.9552 c -2.8992 -0.4704 -5.8512 -0.6864 -8.7072 -1.3104 c -1.8288 -0.4176 -3.2256 0 -4.7472 0.8736 a 708.317 708.317 0 0 1 -14.616 8.28 c -8.6448 4.7808 -17.832 7.4064 -27.7824 6.3552 c -2.7504 -0.2832 -5.4912 -1.0368 -8.1216 -1.9104 c -2.4144 -0.8016 -3.1344 -2.0208 -2.5776 -4.5216 c 0.4464 -1.992 1.4304 -3.9024 2.3808 -5.736 c 0.5376 -1.0464 1.4976 -1.8816 2.2032 -2.7216 c -6.0336 1.7472 -11.976 3.7104 -18.0384 5.1552 c -6.312 1.5024 -12.7056 1.7376 -19.0896 -0.1632 c -5.3856 -1.608 -6.8928 -3.912 -3.3024 -9.69122 c 1.68 -2.7024 4.5744 -5.0976 7.4592 -6.5184 c 5.7264 -2.8608 11.8272 -4.9632 17.7984 -7.3104 c 1.296 -0.504 2.688 -0.7488 4.4592 -1.2192 c 0.2688 -5.88 0.5856 -11.8608 0.8016 -17.8272 c 0.2064 -5.616 0.168 -5.5824 5.3904 -7.6704 c 6.624 -2.6256 13.2384 -5.2992 19.8528 -7.9632 c 0.24 -0.0912 0.4464 -0.2976 1.1376 -0.7824 v -171.235 l -156.595 -29.4432 l -1.1136 11.0688 l 10.4304 2.4384 c -0.3216 6.552 -0.576 12.9696 -1.0272 19.3632 c -0.0672 0.9504 -0.9168 1.9824 -1.656 2.7264 c -2.1888 2.1696 -4.608 4.104 -6.72 6.3456 c -0.8688 0.912 -1.5984 2.3328 -1.6752 3.5664 c -0.936 14.2608 -1.728 28.5168 -2.5728 42.7824 c -1.008 17.1984 -2.0496 34.3968 -3.0432 51.6 c -0.7008 12.0336 -1.3152 24.0624 -2.016 36.0816 c -1.368 23.6352 -2.7648 47.2704 -4.1568 70.9008 c -0.024 0.4176 -0.1824 0.816 -0.312 1.392 l -7.656 3.12 c 4.104 2.4624 7.3968 5.2944 9.0432 9.61444 c 1.6224 4.2816 1.5696 8.5008 -0.2112 12.6912 c -2.8896 6.7824 -10.0992 10.9824 -17.2656 10.0992 c -7.1712 -0.8832 -13.296 -6.3744 -14.5152 -13.2816 c -0.8592 -4.8816 0.0192 -9.44644 3.0432 -13.536 c 2.88 -3.8928 7.0992 -5.592 12.1584 -7.1136 c -4.1952 -0.6624 -7.6176 -1.1904 -11.5104 -1.7904 l -13.5744 -210.12 c -3.5472 -0.8064 -6.7968 -1.5552 -10.4736 -2.4 l -1.0512 -21.2448 c 3.936 -2.1984 7.5792 -4.2336 11.3664 -6.336 l -0.7824 -19.5936 c -48.7872 -9.38878 -97.1756 -18.696 -145.689 -28.0176 l -0.696 -19.0896 l 12.9936 -2.8896 v -24.1008 l -5.8752 -1.9632 l 0.888 -22.9536 c 5.52 -1.584 10.7664 -2.9472 15.9216 -4.584 c 13.5984 -4.3152 25.9584 -10.9824 37.4736 -19.392 c 15.5184 -11.3376 21.7008 -30.7008 18.8016 -46.9584 l -7.1952 -0.36 l -0.8112 -15.024 c 1.1904 -0.3552 2.208 -0.7056 3.2496 -0.9696 c 16.2624 -4.0752 32.5056 -8.2224 48.8064 -12.1344 c 2.9424 -0.7056 6.1392 -0.7824 9.1824 -0.5616 c 8.7072 0.6336 16.896 -0.9168 24.8736 -4.4784 c 3.4752 -1.5456 6.8016 -3.1488 9.87844 -5.4 c 107.328 -78.4128 214.68 -156.797 322.027 -235.186 c 60.9696 -44.52 121.963 -89.016 182.88 -133.603 c 2.4576 -1.7952 4.728 -2.5104 7.6992 -2.0256 c 11.736 1.9008 23.496 3.648 35.2464 5.448 l 41.472 6.3312 l 41.0592 6.24 c 12.168 1.848 24.3264 3.7632 36.504 5.5152 c 2.6688 0.384 4.7616 1.2096 6.1632 3.6624 c 1.0416 1.8144 2.4528 3.408 3.624 5.1504 c 1.9632 2.928 1.9776 4.92 -0.4032 7.56 a 18.504 18.504 0 0 1 -4.8864 3.8688 c -10.4976 5.6016 -20.9712 11.2368 -31.6224 16.5072 c -12.12 6.0048 -22.1568 14.0976 -28.464 26.328 c -3.1296 6.0864 -4.5984 12.6288 -5.0592 19.368 c -0.3312 4.92 1.5552 9.3264 4.3296 13.3392 c 3.0768 4.44 7.0704 7.9344 11.4432 11.0304 c 6.432 4.5552 13.3872 8.1312 20.7312 10.9392 c 19.3536 7.3872 29.2656 21.9792 32.3232 41.9616 c 1.4112 9.2112 -0.6528 17.832 -3.9792 26.2416 c -5.3952 13.6464 -14.2032 25.0272 -24.24 35.52 c -15.3984 16.0896 -33.1008 29.3424 -51.6528 41.5008 c -17.2272 11.2896 -35.1504 21.3888 -53.616 30.5136 c -1.5552 0.768 -3.0672 1.6272 -4.3632 3.0768 c 6.3744 0.3552 12.744 0.7296 19.1136 1.0608 c 14.8272 0.7728 29.664 1.4448 44.4864 2.3136 c 8.1024 0.4752 16.2096 0.984 24.2544 1.9824 c 10.7136 1.3248 21.1872 3.816 31.0848 8.3184 c 4.7424 2.16 9.1632 4.8192 12.8448 8.5824 c 3.48 3.5472 5.28 7.5888 5.2656 12.768 c -0.1344 40.6368 -0.1728 81.2784 -0.0048 121.911 c 0.0432 11.3904 -4.8 19.92 -13.6128 26.5104 c -8.472 6.3216 -18.264 9.76322 -28.488 11.6928 c -9.312 1.752 -18.7728 2.7648 -28.7952 4.1952 v 3.9744 c 0 14.8608 -0.1152 29.712 0.0528 44.5632 c 0.072 6.888 -2.4144 12.552 -7.0272 17.4192 c -4.7088 4.9776 -10.4304 8.5104 -16.8576 10.7136 c -2.9472 1.008 -3.648 2.6496 -3.8064 5.5008 c -1.5216 26.9904 -3.2064 53.9808 -4.8048 80.9712 c -0.984 16.776 -1.8912 33.5568 -2.88 50.3376 c -0.4992 8.5296 -1.0896 17.0544 -1.6464 25.7136 l -5.9808 4.2624 c 4.6416 3.72 7.4688 8.1552 6.8832 14.1552 c -0.3792 3.9648 -2.1504 7.2 -5.1744 9.75356 c -6.3024 5.3184 -15.9312 4.2192 -20.8896 -2.3568 c -5.5152 -7.3104 -3.3072 -16.0608 5.9664 -22.6944 c -0.7056 -0.3216 -1.2288 -0.648 -1.8048 -0.8112 c -0.6576 -0.1728 -1.3536 -0.192 -2.64 -0.3648 l -9.59522 -148.752 l -82.776 29.8224 c -0.936 12.984 -1.8864 25.9296 -2.8464 39.1296 l 9.50878 3.0096 c 0 6.1728 0.0816 12.192 -0.0768 18.2064 c -0.0288 1.0704 -0.8016 2.3328 -1.6128 3.1392 c -1.9872 1.968 -4.1664 3.7488 -6.3264 5.52 c -1.2816 1.0656 -1.8192 2.2896 -1.9152 3.9696 c -0.8016 14.544 -1.68 29.0928 -2.5584 43.632 c -1.3008 21.672 -2.6448 43.3392 -3.936 65.016 c -0.7008 11.6016 -1.3152 23.2176 -2.0112 34.8192 c -1.1376 19.3008 -2.304 38.6016 -3.48 57.8976 c -0.0144 0.264 -0.144 0.5376 -0.2688 0.9456 c -3.024 1.3104 -5.5824 4.2384 -9.70078 3.072 c 4.0656 2.3376 7.6032 4.9728 9.46078 9.3552 c 1.9152 4.512 1.8912 8.9904 -0.1392 13.4256 c -3.2688 7.1232 -11.0736 10.776 -18.8976 8.8992 c -7.344 -1.7472 -12.5088 -8.7744 -12.1872 -16.5552 c 0.3552 -8.6256 6.2064 -14.0448 17.3472 -15.816 c -4.2 -0.6816 -8.0544 -1.3008 -12.4464 -2.0016 c -4.512 -70.152 -9.0336 -140.251 -13.5744 -210.552 Z M 491.365 244.131 l -3.3408 2.5296 l -6 4.0848 l -3.4416 2.4384 l -3.4416 2.4528 c -1.4016 0.9024 -2.8512 1.7376 -4.2 2.7216 a 363061 363061 0 0 0 -210.619 153.835 c -4.4304 3.2352 -8.8704 6.3264 -14.2512 7.7808 c -0.7152 0.1968 -1.3536 0.7008 -2.64 1.3968 l 26.328 3.5088 l -6.0192 -10.5552 c 1.4352 -1.128 2.6112 -2.1024 3.8352 -3.0144 c 61.9824 -46.1616 123.974 -92.304 185.947 -138.475 c 7.3968 -5.5104 14.6928 -11.1552 22.0368 -16.7376 l 3.3504 -2.5392 l 3.3792 -2.544 l 5.6544 -4.4256 l 3.3456 -2.5344 l 3.2496 -1.7472 l -0.5808 -0.7872 l -2.592 2.6112 Z m 202.445 69.0768 c -0.2688 -1.6272 -13.7088 -49.8384 -13.9728 -51.4656 c -0.288 0.0864 12.6096 46.752 12.3216 46.8288 l 1.7232 4.5696 c 0.264 1.3632 0.4416 2.7504 0.8112 4.0848 c 13.0848 47.4288 26.1936 94.8572 39.2976 142.282 c 2.1504 7.8 4.3104 15.6 6.5664 23.736 l 7.2528 0.8208 c -0.2736 -1.08 -0.384 -1.6032 -0.5472 -2.1264 c -17.2944 -55.368 -34.5792 -110.741 -51.9024 -166.099 c -0.3024 -0.9456 -1.032 -1.752 -1.5504 -2.6304 Z m -20.7456 -83.5104 c -0.0912 3.7152 1.6896 6.8784 2.5776 10.3008 l 1.0128 -0.3168 c -1.2288 -3.3072 -2.448 -6.6144 -3.6672 -9.92156 c -0.2352 -1.2144 -0.3456 -2.4768 -0.7056 -3.6576 c -5.232 -17.1168 -10.4976 -34.2288 -15.7584 -51.336 c -0.36 -1.1664 -0.8352 -2.304 -1.32 -3.648 l -8.5632 1.6896 c 28.032 104.923 55.9488 209.452 83.9376 314.242 c 7.0992 0.7776 14.5392 2.3424 22.1808 2.2848 c -3.888 -1.0704 -7.824 -1.8144 -11.8032 -2.2512 c -2.3952 -0.2688 -4.0128 -1.0032 -4.2336 -3.6624 c -0.0624 -0.6768 -0.408 -1.3296 -0.6 -2.0016 l -50.976 -184.464 c -10.9152 -39.5088 -21.8352 -79.0176 -32.7408 -118.531 c -0.1008 -0.3792 -0.096 -0.7872 -0.1632 -1.4208 l 3.2016 -1.0272 c 0.5472 1.5696 1.0416 2.8512 1.4544 4.1616 c 4.8 15.3504 9.576 30.7056 14.4096 46.0416 c 0.3888 1.2288 1.1568 2.3424 1.7568 3.5184 Z M 185.12 451.409 l -12.4608 -1.5216 c 0 2.5248 0.0096 4.464 0 6.3984 c -0.1584 18.4368 -7.3104 33.264 -22.416 44.184 a 134.472 134.472 0 0 1 -47.6352 21.96 c -1.032 0.2496 -2.0064 0.744 -2.9856 1.1088 l -0.8208 17.1408 c 1.656 0.4992 3.0864 1.1664 4.5696 1.3104 c 1.7664 0.1776 3.5856 -0.2208 5.3712 -0.144 c 4.176 0.1536 8.3472 0.4416 13.0848 0.7056 l 0.5856 -19.7856 c 1.8624 -0.8016 3.5568 -1.4448 5.1888 -2.2416 c 8.16 -3.9744 16.536 -7.5648 24.384 -12.0912 c 11.0832 -6.3888 19.4016 -15.504 23.7888 -27.7728 c 1.08 -3.024 2.1792 -6.0816 2.8032 -9.2112 c 1.2528 -6.2832 2.1792 -12.6192 3.312 -19.3344 l 3.2496 -0.7104 c -0.3312 7.6992 -1.2672 15.312 -3.3168 22.7616 c -2.8224 10.2576 -7.0848 19.7856 -14.856 27.3216 c -5.0352 4.872 -10.464 9.3168 -16.8096 12.4272 c -6.7728 3.3168 -13.56 6.6192 -20.4624 9.66244 c -2.6016 1.1472 -3.888 2.4384 -3.9216 5.4816 c -0.1296 11.0592 -0.5616 22.1088 -0.864 33.1632 c -0.0336 1.2288 -0.0048 2.4576 -0.0048 3.9552 l 7.2768 1.1472 l 0.8112 -21.4464 c 19.5936 -5.3088 38.832 -10.512 58.0224 -15.7152 V 452.379 c -2.0832 -0.336 -3.9888 -0.6528 -5.8944 -0.9696 Z m 53.9472 190.354 c 6.6096 1.1568 13.2096 2.3376 19.824 3.4704 c 4.3536 0.744 8.7264 1.4256 13.6272 2.2272 v -21.1008 h 3.5472 v 19.5552 c 2.0496 -0.9648 3.4752 -1.8192 5.016 -2.3184 c 3.1584 -1.0176 4.1952 -3.144 4.2384 -6.3312 c 0.0528 -3.4464 0.5952 -6.8784 0.9744 -10.8384 c 61.584 11.9088 122.544 24.0384 183.643 35.4288 c 61.0464 11.3712 122.189 22.2144 183.72 33.7584 l -1.728 -14.808 C 465.008 646.078 278.672 611.408 92.24 576.786 v 11.6592 c 24.5424 4.6896 48.8304 9.2352 73.08 13.992 c 24.2064 4.752 48.4848 9.1536 72.5328 14.0928 l 1.296 25.32 c -2.5008 0.3696 -4.4928 1.6464 -6.336 3.2256 c 0.2976 0.4128 0.3552 0.5952 0.4464 0.6096 c 14.6688 2.8656 29.328 5.7312 44.0112 8.5488 c 0.9072 0.168 2.0688 0.1968 2.832 -0.216 c 3.9216 -2.1024 7.752 -4.368 11.88 -6.7296 c -3.7968 -1.8 -7.0416 -1.9776 -10.3584 0.1056 c -2.0016 1.2576 -4.2624 2.0928 -6.3552 3.216 a 5.2512 5.2512 0 0 1 -3.9552 0.5376 c -3.5472 -0.768 -7.1568 -1.2288 -10.7424 -1.8288 l -22.1232 -3.72 l 0.6192 -3.8352 Z M 927.651 78.368 c -1.6704 -0.096 -3.36 -0.0528 -5.0112 -0.3072 c -9.80156 -1.5312 -19.5984 -3.1296 -29.4 -4.704 L 853.914 67.04 c -13.1088 -2.0976 -26.2272 -4.1808 -39.3408 -6.2832 c -13.248 -2.1216 -26.5104 -4.1808 -39.7344 -6.4224 c -3.6384 -0.6192 -6.5424 -0.1776 -9.672 2.1792 c -50.5392 38.1264 -101.174 76.128 -151.805 114.144 c -78.624 59.0448 -157.253 118.075 -235.882 177.115 l -99.4556 74.688 c -1.1136 0.84 -2.1792 1.7568 -3.84 3.096 c 22.4592 2.9904 43.9488 5.8272 65.4288 8.7216 c 21.4848 2.8992 42.96 5.8704 64.4448 8.7888 c 21.48 2.9184 42.9648 5.8368 64.4496 8.7168 c 21.4944 2.8752 42.9888 5.6736 64.4736 8.5728 c 21.4848 2.8944 42.9552 5.8752 64.4448 8.7984 c 21.48 2.9184 42.9552 5.88 64.4544 8.6784 c 21.3936 2.7936 42.744 5.9232 64.5168 8.5584 c -0.4128 -1.7712 -0.6336 -2.8608 -0.9216 -3.9408 l -81.7008 -305.726 c -0.6432 -2.4096 -1.3392 -4.8096 0.4464 -7.3392 l 13.7232 -2.5152 c 0.8448 2.6592 1.656 5.1456 2.4288 7.6464 a 2.57969e+006 2.57969e+006 0 0 1 84.192 273.581 c 3.912 12.7008 7.8048 25.4016 11.7552 38.0976 c 0.4896 1.5648 1.2384 3.0384 -1.5024 4.1184 c 5.6064 0.7632 10.4304 1.4112 15.264 2.064 c 1.0224 -1.6704 2.136 -2.8272 3.4992 -3.3456 c 5.6016 -2.1552 11.2896 -4.1088 16.9344 -6.168 c 4.0416 -1.4688 8.0688 -2.9856 12.1008 -4.4832 c -1.9248 -0.9648 -3.8256 -1.1184 -5.7072 -1.368 c -6.504 -0.8496 -13.0656 -1.4496 -19.4928 -2.7168 c -3.4992 -0.6864 -6.9888 -2.136 -10.0992 -3.9216 c -5.4144 -3.1008 -6.5472 -8.016 -3.1056 -13.1904 c 2.376 -3.6 5.064 -7.0992 8.1264 -10.1184 c 10.9056 -10.752 24.432 -15.2016 39.4848 -16.1472 c 12.4272 -0.7728 24.8256 -2.0688 37.2432 -3.1392 c 7.6656 -0.6672 15.3312 -1.3536 23.0016 -2.0208 c 6.6864 -0.5808 13.4208 -0.8208 20.0496 -1.8 c 7.7616 -1.1472 15.2592 -3.3984 22.1184 -7.4352 c 7.8768 -4.6368 11.9376 -11.4768 12.5328 -20.568 c 0.264 -4.0368 -0.672 -7.656 -3.6048 -10.3392 c -2.8608 -2.6208 -5.9904 -5.088 -9.3456 -7.008 c -7.848 -4.4976 -16.5648 -6.6384 -25.3584 -8.4192 c -16.968 -3.432 -34.2384 -3.2928 -51.4224 -4.2192 c -0.6768 -0.0384 -1.3536 0.1056 -2.688 0.2208 c 0.9888 0.3504 1.3344 0.5472 1.6992 0.5952 c 12.888 1.7328 25.8096 3.2016 38.6448 5.256 c 9.80644 1.5696 19.4688 4.0656 28.4544 8.424 c 3.8688 1.872 7.5024 4.3488 10.8864 7.0032 c 2.4864 1.9536 4.3872 4.6512 4.5456 8.3616 l -3.1008 0.528 c -2.1024 -5.9424 -6.8064 -9.288 -12.0912 -11.6544 a 123.394 123.394 0 0 0 -16.5024 -6.0432 c -12.5184 -3.5808 -25.3776 -5.6112 -38.3328 -6.8592 c -12.3984 -1.1952 -24.7968 -2.592 -37.2288 -3.144 c -16.6512 -0.7392 -33.3312 -0.7536 -49.992 -1.0704 c -1.344 -0.024 -2.688 0 -4.0896 0 v -3.5952 h 38.472 c -5.2704 -0.4704 -10.5312 -1.0992 -15.792 -1.176 c -16.3968 -0.2304 -32.7888 -0.2544 -49.1808 -0.3552 c -1.488 -0.0096 -2.9712 0 -4.5264 0 v -3.8784 c 1.6992 0 3.2064 -0.0144 4.7088 0.0048 c 15.8304 0.2256 31.6608 0.4272 47.4816 0.7248 c 3.5472 0.0672 6.8112 -0.4176 10.104 -2.016 c 21.5616 -10.4496 42.504 -21.9984 62.5104 -35.2032 c 18.5136 -12.2208 36.1008 -25.6224 51.2304 -41.9808 c 8.7984 -9.51844 16.4736 -19.8096 21.4512 -31.9104 c 3.7536 -9.144 5.352 -18.4992 3.2208 -28.3248 c -3.648 -16.7856 -12.7968 -28.896 -29.1168 -35.28 a 135.451 135.451 0 0 1 -15.1488 -7.1664 c -6.2976 -3.4272 -12.0336 -7.704 -16.7328 -13.2048 c -4.9104 -5.7504 -7.8144 -12.24 -7.1328 -20.0016 c 0.7248 -8.208 2.9616 -15.9216 7.272 -23.0064 c 6.7008 -11.0256 16.3824 -18.5568 27.7632 -24.264 c 10.5024 -5.2608 20.8944 -10.7568 31.2864 -16.2336 c 0.9744 -0.5136 1.6464 -1.6224 2.4576 -2.4432 c 3.2112 -1.44 3.3648 -1.9968 0.96 -4.968 c -0.3408 1.9104 -0.6144 3.48 -0.8784 5.0592 Z M 195.277 452.888 v 74.7024 c 5.2944 0.9456 10.3728 1.8624 15.4512 2.7648 c 19.6704 3.528 39.336 7.0704 59.0064 10.5984 c 17.8848 3.2016 35.7744 6.384 53.6544 9.58556 c 19.6752 3.5184 39.3408 7.0608 59.0112 10.5936 c 18.0192 3.2304 36.0336 6.4848 54.0576 9.70556 c 18.0192 3.2304 36.048 6.4272 54.0672 9.65278 c 19.5312 3.4992 39.0576 7.0272 58.5984 10.5312 l 58.1904 10.4304 c 19.6704 3.5232 39.3456 6.9984 59.0112 10.6128 c 2.3808 0.4368 4.3488 0.2256 6.3168 -1.1712 c 4.896 -3.4896 10.056 -6.6384 14.7264 -10.4016 c 6.8208 -5.5008 12.3984 -12.1296 16.1136 -20.1792 c 1.8864 -4.104 3.2688 -8.328 3.2256 -12.9216 c -0.1392 -13.4496 -0.2496 -26.8992 -0.3936 -40.3392 c -0.0096 -0.9216 -0.2352 -1.8576 -0.3984 -3.0336 c -170.16 -23.7072 -340.171 -47.3904 -510.638 -71.1312 Z m 662.957 19.248 v 82.176 c 1.2384 0.1776 2.0448 0.4128 2.8464 0.3936 c 11.0976 -0.288 22.0464 -1.7376 32.7312 -4.7376 c 7.9824 -2.2464 15.6192 -5.328 22.1424 -10.6752 c 7.1472 -5.856 10.8288 -13.2624 10.8048 -22.632 c -0.0864 -33.7728 -0.0288 -67.5456 -0.0288 -101.318 v -3.9744 c -0.6432 0 -0.8112 -0.0528 -0.8928 0.0096 c -0.3264 0.2448 -0.6816 0.4896 -0.9312 0.8016 c -3.8736 4.824 -8.9232 7.9968 -14.5248 10.416 c -6.72 2.904 -13.7616 4.7856 -21.0096 5.5248 c -10.7184 1.104 -21.4848 1.7232 -32.2176 2.6304 c -7.6704 0.6528 -15.3216 1.4688 -22.9872 2.1504 c -7.8096 0.6912 -15.6144 1.4832 -23.4384 1.896 c -6.2112 0.3264 -12.2352 1.4112 -18.0144 3.6048 c -10.3872 3.9408 -18.744 10.4928 -24.8256 19.8624 c -2.88 4.4352 -2.3136 7.0512 2.3328 9.55678 c 1.9536 1.0464 4.0848 1.848 6.2256 2.4384 c 8.5488 2.3376 17.3232 3.2448 26.1552 3.3984 c 9.1056 0.168 18.2112 0.048 27.312 0.0672 c 0.3984 0 0.7872 0.1824 1.4496 0.3504 c 0.1296 1.0032 0.2784 2.0304 0.4272 3.1968 c -32.976 12.576 -65.9664 24.4176 -98.52 38.2944 v 12 a 4684.46 4684.46 0 0 0 -7.4688 -0.5184 v 4.5744 c 0 11.496 -0.1296 22.9824 0.0576 34.4784 c 0.0912 5.856 -0.792 11.472 -3.1488 16.7664 c -2.1552 4.8528 -4.3488 9.74878 -7.2 14.1984 c -10.248 16.0176 -24.9984 26.544 -42.3264 33.792 c -1.5072 0.6336 -3.0144 1.3008 -4.6944 2.0256 v 42.2448 c -4.2768 1.848 -8.3424 3.5952 -12.6336 5.4432 l 1.3104 12.8304 c 1.2816 -0.264 2.256 -0.3744 3.168 -0.672 c 15.7824 -5.184 31.6368 -10.1712 47.328 -15.6528 c 29.928 -10.44 59.7792 -21.12 89.6448 -31.776 c 11.1744 -3.9984 22.1664 -8.5008 33.6768 -11.5728 a 41.4144 41.4144 0 0 0 16.8336 -9.1536 c 5.1744 -4.5744 7.9968 -10.0464 7.8912 -17.2896 c -0.2976 -20.1024 0.0288 -40.2192 -1.0272 -60.3216 c -0.6384 -12.1584 -0.1152 -24.3744 -0.1152 -36.5712 c 0.0048 -12.0528 0 -24.1008 0.0192 -36.1536 c 0.0048 -0.6624 0.1776 -1.3344 0.2976 -2.1072 l 3.3504 0.0048 Z m -203.511 147.629 l -0.0672 -0.6576 c -1.3104 -0.2928 -2.6064 -0.6336 -3.9264 -0.8544 c -14.3376 -2.3616 -28.6896 -4.6848 -43.032 -7.0656 c -16.128 -2.664 -32.256 -5.4 -48.3888 -8.064 c -17.7888 -2.9376 -35.592 -5.7984 -53.3808 -8.736 c -16.1328 -2.664 -32.2512 -5.4096 -48.384 -8.0736 c -16.1328 -2.6784 -32.28 -5.2608 -48.408 -7.92 c -17.7888 -2.9376 -35.5632 -5.9616 -53.352 -8.8992 c -17.784 -2.9232 -35.5872 -5.784 -53.3808 -8.7216 c -17.784 -2.9376 -35.5632 -5.9568 -53.3424 -8.9184 c -16.5408 -2.7552 -33.0816 -5.5488 -49.6464 -8.1552 c -3.96 -0.6288 -7.8912 -1.9056 -12.0432 -0.8928 c -11.3952 2.7936 -22.8192 5.4576 -34.224 8.2224 c -0.6816 0.1632 -1.2816 0.6864 -2.4288 1.3248 c 163.863 30.2784 327.082 60.4368 490.579 90.6624 l -0.8208 3.6096 c -83.1696 -15.3888 -165.998 -30.7536 -248.856 -46.0176 c -82.8096 -15.2688 -165.6 -30.6576 -248.889 -45.936 l -0.648 10.4016 c 166.008 31.728 331.666 63.408 497.323 95.0691 c 0.672 0.12 1.3824 0.1008 2.0736 0.12 c 0.1344 0.0096 0.2784 -0.0624 0.3984 -0.1248 c 0.1104 -0.0624 0.2016 -0.168 0.5424 -0.4896 c -0.3168 -11.3424 -0.648 -22.9104 -0.9696 -34.6464 c 4.536 -1.7856 8.904 -3.504 13.272 -5.2368 Z m 114.412 -122.846 l -0.2304 -0.816 c -1.0752 -0.2016 -2.136 -0.4656 -3.2208 -0.6096 c -11.7792 -1.608 -23.5536 -3.2064 -35.3328 -4.7856 c -11.3712 -1.5216 -22.7376 -3.0048 -34.1088 -4.5216 c -11.2224 -1.5024 -22.4544 -3.0192 -33.6768 -4.5408 c -11.5056 -1.5552 -23.0016 -3.1296 -34.5024 -4.6848 l -34.5024 -4.6656 c -11.3664 -1.536 -22.728 -3.0576 -34.0944 -4.5888 c -11.5056 -1.5504 -23.0112 -3.1104 -34.5072 -4.6656 c -11.3616 -1.5312 -22.7328 -3.0528 -34.0992 -4.5744 c -11.3664 -1.5264 -22.7328 -3.0384 -34.0992 -4.5696 c -11.5008 -1.5552 -23.0016 -3.1344 -34.5072 -4.6896 c -11.3616 -1.5312 -22.728 -3.0384 -34.0944 -4.5744 c -11.5008 -1.5504 -23.0064 -3.12 -34.5024 -4.6752 c -11.3664 -1.5312 -22.7376 -3.0432 -34.104 -4.5792 c -11.5008 -1.5504 -23.0016 -3.1152 -34.5024 -4.6752 l -34.5024 -4.68 c -5.1216 -0.6912 -10.2288 -1.68 -15.3792 -1.9728 c -6.0048 -0.336 -12.048 -0.0816 -18.072 -0.0336 c -1.104 0.0096 -2.232 0.168 -3.3072 0.4272 c -12.888 3.1776 -25.7664 6.384 -38.64 9.60956 c -0.672 0.168 -1.272 0.6192 -2.6544 1.3248 l 9.576 1.3008 l 33.6816 4.5648 c 11.3664 1.5504 22.728 3.1152 34.0944 4.6656 c 11.5008 1.5744 23.0016 3.1488 34.5024 4.7088 c 11.2272 1.5216 22.4592 3.0336 33.6864 4.5456 l 33.6864 4.5408 c 11.6448 1.5744 23.2896 3.1632 34.9296 4.7472 l 33.2688 4.5168 l 40.7424 5.5488 l 33.6768 4.5888 c 13.3056 1.8192 26.6064 3.6624 39.9168 5.4624 c 13.3008 1.8 26.6208 3.528 39.9264 5.3376 c 13.4448 1.8288 26.8752 3.7536 40.3104 5.5728 c 13.4448 1.8336 26.8992 3.5712 40.3488 5.3952 c 13.4448 1.824 26.88 3.72 40.32 5.5536 c 11.3664 1.5504 22.7472 2.9472 34.0944 4.632 c 2.496 0.3792 4.6416 0.144 6.9024 -0.792 c 7.8912 -3.2544 15.8112 -6.408 23.7168 -9.60956 c 3.0864 -1.2336 6.1776 -2.4816 9.2592 -3.7392 Z m -224.246 353.563 v -171.139 l -34.3536 -6.2592 v 169.988 c 11.4 2.448 22.6704 4.8864 34.3536 7.4112 Z m -38.352 -4.5456 v -58.2672 v -57.5856 c 0 -19.2768 0.0048 -38.544 -0.0048 -57.8304 c -6.4752 -0.7872 -12.168 -2.76 -18.4848 -2.8176 V 824.537 c 0 9.0192 -0.0336 8.9808 -5.9952 15.5568 c -1.1664 1.2864 -2.1504 1.728 -3.9648 1.3296 c -8.4624 -1.8384 -16.9824 -3.4032 -25.4544 -5.2032 c -2.9712 -0.6336 -5.7072 -0.5808 -8.5296 0.72 c -3.6816 1.68 -7.5024 3.0624 -11.2464 4.6176 c -0.8208 0.3408 -1.5696 0.8544 -2.9952 1.656 c 5.8032 1.1808 10.8288 2.1984 15.8592 3.2448 c 35.1648 7.2768 70.3344 14.5344 105.485 21.9024 c 1.8912 0.3888 3.2016 0 4.6944 -0.8736 c 7.4928 -4.3824 15.0096 -8.712 22.5024 -13.0896 c 0.6528 -0.3888 1.2 -0.936 2.3808 -1.896 c -9.408 -1.9392 -18.0816 -3.7488 -27.1632 -5.6448 l -7.2816 7.8096 c -13.5552 -2.9664 -26.5776 -5.8224 -39.8016 -8.7312 Z m 180.562 -92.496 c -10.7808 -2.1024 -21.3888 -4.176 -32.4768 -6.3312 l 13.3392 206.871 l 14.3616 2.0688 c 1.6032 -67.632 3.1776 -134.918 4.776 -202.608 Z m -448.046 -83.5104 c 4.512 69.2448 8.8272 137.669 13.3584 206.136 c 5.0688 0.7104 9.53756 1.3392 14.3328 2.0016 l 4.7424 -201.672 c -10.9248 -2.1696 -21.3216 -4.248 -32.4336 -6.4656 Z m 211.277 -7.8816 v 170.04 c 9.0864 1.8 18.1728 3.6 27.4512 5.4288 v -170.409 c -8.9808 -1.656 -17.8656 -3.2976 -27.4512 -5.0592 Z M 272.499 421.923 c 5.6736 -4.2768 10.8096 -8.1504 15.9504 -12.0144 l 266.789 -200.304 c 68.8848 -51.7152 137.779 -103.406 206.587 -155.227 c 4.2576 -3.2064 8.04 -4.8624 13.6608 -3.7824 c 14.6784 2.8416 29.5152 4.872 44.2896 7.2384 c 14.904 2.3904 29.8128 4.8 44.7216 7.1952 c 15.1776 2.4432 30.3648 4.8912 45.5568 7.3104 c 4.656 0.744 9.3264 1.4016 14.136 2.1168 l 0.4608 -2.6544 c -6.936 -1.176 -13.656 -2.3424 -20.3856 -3.456 c -14.3376 -2.3664 -28.6944 -4.6896 -43.0368 -7.056 c -14.616 -2.4144 -29.2272 -4.8576 -43.8432 -7.2816 c -15.8592 -2.6208 -31.7328 -5.1408 -47.5536 -7.9296 c -3.1632 -0.5568 -5.496 -0.1152 -8.0976 1.8288 c -58.824 43.896 -117.711 87.6912 -176.577 131.52 c -101.203 75.3696 -202.406 150.749 -303.609 226.128 c -4.2576 3.1728 -8.5008 6.3744 -12.9216 9.69122 l 3.8736 6.6768 Z m -108.052 23.232 c 47.616 5.9424 94.4878 12.9936 141.437 19.3872 c 47.1072 6.4224 94.1709 13.1472 141.259 19.728 c 46.9488 6.5568 93.8972 13.1568 140.851 19.6272 c 47.0304 6.4752 94.0125 13.176 141.259 19.5792 v -8.664 C 542.188 489.358 355.318 463.928 168.449 438.512 c -0.5568 -0.0768 -1.1136 -0.1584 -1.6704 -0.1872 c -0.5568 -0.024 -1.1136 0.0048 -1.6752 0.024 a 0.6816 0.6816 0 0 0 -0.3792 0.12 c -0.1056 0.0816 -0.1728 0.2112 -0.2784 0.3504 v 6.336 Z m 391.517 392.198 c 9.384 -14.4864 73.2768 -139.099 73.8288 -142.526 l -22.224 -3.984 c -0.792 1.5792 -1.4352 2.808 -2.0352 4.0608 c -8.3328 17.112 -16.656 34.2048 -24.9744 51.3216 c -7.4016 15.2352 -14.6592 30.5136 -22.272 45.6288 a 19.92 19.92 0 0 0 -2.2464 9.528 c 0.0672 10.6368 -0.0432 21.288 -0.0816 31.9296 c -0.0048 1.3488 0.0048 2.688 0.0048 4.0416 Z m 257.16 -38.736 c 1.5504 -52.4544 3.0912 -104.443 4.6368 -157.017 c -8.6304 3.2784 -16.656 6.312 -24.7632 9.39356 c 3.1536 49.0656 6.2928 97.6369 9.42244 146.261 l 10.704 1.3632 Z m -260.4 96.5475 l -0.7104 -22.8528 c -42.2016 -8.7648 -84.0288 -17.4624 -125.866 -26.1312 c -0.528 -0.1104 -1.1088 -0.0432 -1.6608 -0.0336 c -0.1248 0 -0.264 0.096 -0.3792 0.1728 c -0.1056 0.072 -0.192 0.1728 -0.6528 0.6096 v 18.1008 c 2.304 0 4.5216 -0.072 6.7248 0.0192 c 2.2368 0.072 4.5312 0.0336 6.6912 0.5376 c 2.4 0.5616 4.992 1.2432 6.8688 2.6976 c 1.2624 0.9744 1.416 3.3744 2.1072 5.2368 c 3.192 1.224 6.576 0.9696 10.0944 0.8352 c 6.8304 -0.2448 13.6992 0.024 20.52 0.5376 c 3.8448 0.2976 7.4832 1.6896 7.5408 6.6432 c 2.8944 0.48 5.5008 1.008 8.1312 1.32 c 5.5056 0.672 10.8912 1.8 16.6176 0.5568 c 5.4048 -1.176 11.0832 -1.656 16.68 -0.2832 c 3.4128 0.8304 6.3216 2.0928 7.2576 6.0096 c 0.2064 0.8352 1.2672 1.8912 2.1024 2.0976 c 5.6832 1.3632 11.4096 2.5248 17.9328 3.9264 Z m -447.682 -325.963 c 62.52 11.5968 124.628 23.1264 186.744 34.632 c 62.1216 11.496 124.234 23.0256 186.374 34.4208 c 62.0496 11.376 124.056 23.0112 186.322 34.3392 v -21.9648 l -18.5616 -2.472 v 17.1264 c -175.104 -32.04 -349.771 -63.9936 -524.544 -95.9569 v -11.7168 v -11.7648 h -16.3344 v 23.3568 Z m 451.114 216.322 c 0.3552 0.0528 0.7056 0.1008 1.0704 0.1392 c 15.432 -31.7616 30.8736 -63.528 46.4544 -95.6062 l -46.6512 -8.4864 l -0.8736 103.954 Z m -416.784 -234.763 c 0.7344 -0.2592 1.2288 -0.4896 1.752 -0.6144 c 15.8928 -3.8256 31.7856 -7.656 47.6928 -11.4384 c 0.9216 -0.216 1.9584 -0.2208 2.8992 -0.0672 c 7.0416 1.128 14.064 2.3376 21.1008 3.5088 c 15.9984 2.6736 31.9968 5.3376 47.9952 7.992 c 16.4112 2.712 32.832 5.4096 49.2528 8.1216 c 15.8592 2.616 31.728 5.2512 47.592 7.8624 c 16.2768 2.688 32.5584 5.3472 48.8352 8.0352 c 14.3472 2.3712 28.6896 4.7616 43.032 7.1184 c 14.3472 2.3664 28.6992 4.6992 43.0464 7.0704 c 18.072 2.9712 36.1392 5.976 54.2016 8.9616 c 17.5152 2.8944 35.04 5.76 52.56 8.6592 c 17.928 2.9712 35.8608 5.9664 53.7792 8.9568 c 1.0992 0.1872 2.3712 0.216 3.1968 0.8208 c 0.6768 0.4992 0.8064 1.7328 1.2624 2.8224 c 2.0064 -1.1664 4.1712 -1.3728 5.5488 -3.3648 c -5.3904 -0.984 -10.4688 -1.9248 -15.552 -2.8368 c -16.6416 -2.9904 -33.288 -5.9712 -49.9296 -8.9472 c -17.8848 -3.192 -35.7648 -6.3936 -53.6592 -9.58078 c -17.8896 -3.192 -35.7792 -6.3648 -53.664 -9.57122 c -19.5312 -3.504 -39.0576 -7.0704 -58.5888 -10.56 c -19.536 -3.504 -39.0864 -6.936 -58.6176 -10.4352 c -18.0192 -3.2256 -36.0288 -6.528 -54.048 -9.74878 c -21.048 -3.768 -42.1104 -7.4592 -63.1632 -11.232 c -18.0192 -3.2304 -36.0336 -6.504 -54.0432 -9.79678 c -3.096 -0.5664 -6.168 -1.3872 -8.9712 0.9264 c -0.4032 0.336 -1.032 0.4272 -1.5696 0.5712 c -8.64 2.304 -17.28 4.5936 -25.9104 6.9216 c -9.552 2.5728 -19.0944 5.1936 -28.7568 7.8192 c -0.2256 6.0768 -0.4608 11.9376 -0.6432 17.808 c -0.0432 1.3248 0.4992 2.1792 1.9584 1.8048 l 1.4112 -17.5872 Z m 511.334 74.8896 c 1.5648 0.4848 2.448 0.8448 3.3648 1.0224 c 3.5664 0.696 7.1856 1.1376 10.6992 2.04 c 1.7712 0.456 3.2304 0.264 4.8336 -0.3792 c 9.1488 -3.6432 17.7456 -8.2512 25.4784 -14.376 c 11.2128 -8.8848 19.6464 -19.8288 24.5568 -33.36 c 1.5408 -4.2384 2.4048 -8.544 2.3472 -13.1184 c -0.1488 -12.1776 -0.048 -24.3552 -0.0672 -36.5328 c 0 -1.4976 -0.12 -2.9808 -0.1968 -4.728 l -11.712 -1.5024 c 0 1.9152 -0.024 3.2928 0 4.656 c 0.192 11.8992 0.3312 23.7888 0.5904 35.6784 c 0.1392 6.1632 -1.3344 11.8992 -3.9792 17.4096 c -4.3392 9.0288 -10.9296 16.1904 -18.6048 22.4352 c -9.73444 7.92 -20.7024 13.7376 -32.2656 18.5184 c -1.4832 0.5952 -2.9472 1.296 -5.0448 2.2368 Z m 6.024 50.7936 l -0.0288 -1.0608 c -0.3168 -0.2064 -0.624 -0.552 -0.9744 -0.6192 c -10.9824 -2.0448 -21.9792 -4.0608 -32.976 -6.0912 c -17.4576 -3.2064 -34.9056 -6.4176 -52.3584 -9.64322 c -17.448 -3.2256 -34.896 -6.4704 -52.344 -9.696 c -18.96 -3.5088 -37.92 -7.0128 -56.8848 -10.512 l -56.8848 -10.512 c -18.96 -3.4992 -37.9248 -6.9936 -56.8848 -10.5072 c -18.8208 -3.4848 -37.6464 -6.9888 -56.4672 -10.4736 c -19.0992 -3.528 -38.2032 -7.0368 -57.3024 -10.5648 c -20.3328 -3.7632 -40.6656 -7.5456 -60.9984 -11.2992 c -21.9888 -4.056 -43.9872 -8.0448 -65.9568 -12.1824 c -2.5632 -0.4848 -4.8048 -0.3744 -7.4256 1.008 c 9.71044 1.824 19.0416 3.5808 28.3728 5.3184 l 61.4208 11.4096 l 61.0128 11.3184 c 20.2032 3.7392 40.4064 7.464 60.6048 11.232 c 21.8448 4.0704 43.68 8.1888 65.5248 12.2544 s 43.7088 8.0496 65.5584 12.1104 c 23.3568 4.3392 46.704 8.76 70.0608 13.0992 c 21.8448 4.0608 43.704 8.04 65.5536 12.1104 c 24.5952 4.5744 49.1712 9.2448 73.776 13.7616 c 1.7808 0.3216 3.7296 -0.2784 5.6016 -0.4608 Z m -381.389 0.8928 c -0.2352 6.8256 -0.504 13.392 -0.672 19.9584 c -0.5856 23.5248 -1.1328 47.0592 -1.6896 70.584 c -0.84 35.4336 -1.68 70.8672 -2.4912 106.296 c -0.024 0.9648 0.2928 1.9536 0.4512 2.928 c 0.3264 0.0096 0.6528 0.0192 0.9744 0.0432 c 0.2496 -0.9984 0.6528 -1.9728 0.7104 -2.9712 c 0.6288 -10.3392 1.2 -20.6832 1.7856 -31.0368 c 0.9216 -16.3728 1.8096 -32.7216 2.7648 -49.0992 c 1.2864 -22.0896 2.6448 -44.1792 3.9216 -66.2736 c 0.9696 -16.6416 1.92 -33.2928 2.7456 -49.9296 c 0.1776 -3.576 1.056 -6.4848 4.1424 -8.6064 c 1.7136 -1.1904 3.192 -2.7264 4.6896 -4.2 c 0.6768 -0.6624 1.5552 -1.5072 1.6176 -2.328 c 0.312 -3.9552 0.6816 -7.9296 0.1632 -12.4704 l -12.72 7.2528 v 20.7024 c -2.3856 -0.3072 -4.1616 -0.5424 -6.3936 -0.8496 Z m 410.774 276.845 l 1.224 0.1488 c 0.2016 -1.4112 0.4992 -2.8176 0.5808 -4.2288 c 0.864 -13.8432 1.6896 -27.6864 2.5104 -41.5344 c 1.4016 -23.3376 2.8176 -46.6896 4.1904 -70.0368 c 1.5408 -26.1456 3.0288 -52.3008 4.5744 -78.4464 c 0.2016 -3.3408 -0.1296 -7.032 1.2144 -9.89756 c 1.2048 -2.5536 4.3728 -4.1904 6.6768 -6.2304 c 0.4176 -0.3792 0.9216 -0.6816 1.2432 -1.1232 c 0.3888 -0.5376 0.888 -1.176 0.9024 -1.7952 c 0.0816 -3.8448 0.0384 -7.6944 0.0384 -12.3696 c -4.2672 2.5728 -7.7904 4.6896 -11.4528 6.888 v 19.6848 l -7.032 -0.7584 l -4.6704 199.699 Z m 1.776 -266.28 c -11.52 3.648 -22.5216 7.1472 -33.8592 10.7376 v 22.3776 c 10.5936 1.6608 21.4032 3.3552 32.712 5.136 l 1.1472 -38.2512 Z m -459.543 -24.0672 l 49.776 10.176 v -15.8976 c -16.7088 -3.192 -33.4176 -6.384 -50.4576 -9.65278 l 0.6816 15.3744 Z m 465.566 71.6304 c -16.7376 -2.6544 -32.9904 -5.6304 -49.464 -8.0256 v 13.9152 c 16.5456 3.2112 32.8992 6.3936 49.464 9.60478 v -15.4944 Z m 127.536 -93.1104 c -1.5072 51.5472 -3.0288 103.089 -4.5408 154.747 c 2.4864 -0.3264 2.184 -1.9296 2.2656 -3.2448 c 0.3504 -5.8608 0.6576 -11.7408 0.9984 -17.6064 c 0.6144 -10.7568 1.2288 -21.5136 1.872 -32.2896 c 1.0464 -17.4624 2.1072 -34.92 3.1728 -52.392 c 0.7056 -11.5872 1.4496 -23.1888 2.1408 -34.7808 c 0.3552 -5.9904 0.6576 -11.976 1.0032 -18.384 l -9.48478 2.8368 l 2.5728 1.1136 Z m -236.837 212.774 c -9.89278 5.7552 -19.2288 11.1744 -28.392 16.4976 c -0.6336 7.6032 -0.2016 20.184 0.8448 23.3136 c 9.48478 -5.3856 18.9024 -10.7664 28.488 -16.2192 l -0.9408 -23.592 Z m -35.7984 -8.8656 c 2.9424 -1.2336 3.1968 -3.2544 3.2064 -5.6352 c 0.2016 -26.328 0.4704 -52.6704 0.696 -79.008 c 0.2064 -24.8016 0.3936 -49.5936 0.5904 -74.3952 c 0.0192 -2.0592 0 -4.1232 0 -6.4944 h -4.4928 v 165.533 Z m -19.5744 43.9536 c -1.5744 -3.2688 -4.1232 -3.6144 -6.6192 -3.7536 c -7.7232 -0.4272 -15.2784 0.1824 -22.6272 3.0624 c -6.2448 2.4624 -12.6 4.6272 -18.2256 8.3472 c -1.8384 1.2096 -3.6 2.712 -4.9776 4.4256 c -1.9632 2.4432 -1.344 3.9024 1.752 4.6176 c 6.792 1.5456 13.608 1.272 20.3664 -0.2256 c 11.6064 -2.5872 21.4224 -8.472 30.3312 -16.4736 Z m -254.726 7.9296 c -0.0432 -7.3008 -5.7936 -12.9024 -13.1616 -12.816 a 12.912 12.912 0 0 0 -12.84 12.792 c -0.072 7.1616 5.8176 13.08 13.0224 13.0944 a 12.912 12.912 0 0 0 12.9792 -13.0704 Z m 413.784 77.8032 c 0.3648 -5.6112 -3.7632 -12.3024 -12.1584 -12.8736 c -6.7392 -0.4512 -12.9168 5.784 -12.912 12.672 c 0.0048 6.816 5.6592 12.4992 12.504 12.5376 a 12.3456 12.3456 0 0 0 12.5664 -12.336 Z m -246.682 -104.966 c -1.3152 -0.5184 -2.5008 -1.2096 -3.768 -1.4256 c -15.9648 -2.7408 -30.0144 2.2896 -43.1136 10.8864 c -1.8576 1.2192 -3.2544 3.0816 -3.3648 5.52 c 11.8128 6.5664 42.0768 -2.2656 50.2464 -14.9808 Z m 38.7984 9.68156 c -1.5072 -2.0976 -4.1712 -2.304 -6.5904 -2.5056 c -10.2 -0.8496 -20.3424 -0.8592 -29.7744 4.0032 c -3.7008 1.9104 -7.4736 3.7536 -10.9488 6.0336 c -2.2896 1.4976 -4.272 3.6288 -3.9648 7.2288 c 1.4016 0.408 2.8368 0.8448 4.2864 1.224 c 5.2944 1.3824 10.632 1.0464 15.7056 -0.624 a 113.817 113.817 0 0 0 14.9808 -6.2736 c 5.5776 -2.784 10.9056 -6.0528 16.3056 -9.0864 Z m 1.536 -47.28 c 3.2304 -1.4304 2.4768 -3.912 2.4768 -6 c 0.0288 -51.4272 0.024 -102.845 0.0192 -154.253 c 0 -1.2624 0.1104 -2.5728 -0.192 -3.7584 c -0.1536 -0.6096 -1.1184 -1.0128 -2.304 -1.9824 v 165.994 Z m 208.531 -108.072 c 2.7648 -1.2864 4.9632 -2.4192 7.2528 -3.312 c 1.6992 -0.672 2.184 -1.7664 2.2992 -3.504 c 0.7104 -10.3056 1.536 -20.6064 2.304 -30.9168 c 0.0864 -1.2192 0.0096 -2.4528 0.0096 -4.2624 l -10.6704 3.4176 l -1.1952 38.5776 Z m 118.181 100.853 c 6.1776 0.1296 11.0928 -4.5456 11.16 -10.5936 c 0.072 -5.8416 -4.6704 -10.6992 -10.5504 -10.8144 c -6.1728 -0.12 -11.0448 4.536 -11.0976 10.6176 a 10.608 10.608 0 0 0 10.488 10.7904 Z m -144.254 -193.791 c -6.312 -1.1616 -12.5184 -2.304 -18.7152 -3.456 v 15.3024 l 18.7152 2.7072 v -14.5536 Z m 153.303 -153.903 c -3.3792 -0.5616 -35.8752 10.8 -42.1344 14.1888 c 1.7616 1.1184 3.4464 0.6096 5.1168 -0.0192 c 11.8608 -4.4736 23.7264 -8.9712 35.592 -13.464 c 0.4944 -0.1968 0.9552 -0.4752 1.4256 -0.7056 Z m -111.494 247.306 c -2.7024 -1.824 -4.992 -1.5264 -7.5312 -0.1872 c -3.5232 1.8624 -7.2384 3.3648 -10.5504 4.8816 c 7.1328 3.5904 12.4992 -0.5136 18.0816 -4.6944 Z M 677.744 243.983 l -0.7584 0.2256 l 2.1024 6.672 l 0.7488 -0.2208 l -2.0928 -6.6768 Z m 146.635 121.411 l -0.1488 0.36 h 4.992 l -0.0048 -0.36 h -4.8384 Z m -142.372 -107.827 l -0.72 0.2544 l 1.224 3.9216 c 0.1776 -0.0432 0.3504 -0.0912 0.528 -0.1296 l -1.032 -4.0464 Z m -33.0816 466.181 c 2.4864 0.6864 2.4864 0.6864 2.5968 -1.3488 l -2.5968 1.3488 Z m -204.024 153.816 c -1.9632 -0.6432 -3.4704 -1.2096 -3.7104 1.656 c 1.2672 -0.5568 2.3088 -1.0368 3.7104 -1.656 Z m 367.2 -512.722 l 0.1056 -0.1248 h -2.1696 v 0.1248 h 2.064 Z" fill="#2c2c2c" p-id="13586"></path><path d="M 311.744 409.002 l -0.3936 -3.48 c 3.3024 -0.5328 6.5376 -1.1184 9.792 -1.5744 c 13.7088 -1.9104 27.4272 -3.8016 41.1456 -5.6544 c 11.3664 -1.536 22.7376 -3.0048 34.104 -4.512 c 11.6496 -1.5456 23.2944 -3.1104 34.9392 -4.632 a 9001.6 9001.6 0 0 1 66.1968 -8.3616 c 10.4112 -1.2768 20.8272 -2.5584 31.248 -3.7776 c 11.3904 -1.3296 22.7904 -2.6352 34.2 -3.8736 a 1942.94 1942.94 0 0 1 27.9744 -2.8512 c 8.3616 -0.7872 16.7184 -1.6224 25.1088 -2.0688 c 8.3712 -0.4416 16.776 -0.4896 25.1664 -0.552 c 1.5072 -0.0096 3.0288 0.7296 4.92 1.224 c -1.5984 1.8912 -2.8512 2.3136 -4.7376 2.3424 c -9.92644 0.1392 -19.8816 0.2976 -29.784 0.9552 c -11.2992 0.7488 -22.584 1.9392 -33.8592 3.096 c -11.5488 1.1856 -23.0832 2.5536 -34.6176 3.8592 c -10.704 1.2096 -21.4128 2.4 -32.1024 3.6864 c -10.272 1.2336 -20.5344 2.5776 -30.8064 3.8592 c -9.84956 1.2336 -19.7088 2.4288 -29.5584 3.6912 c -9.70556 1.2432 -19.4112 2.5392 -29.1072 3.8112 c -9.432 1.2432 -18.864 2.4624 -28.2864 3.7248 c -11.64 1.56 -23.2752 3.144 -34.9152 4.728 l -33.2496 4.5216 l -13.3776 1.8384 Z M 496.198 893.609 c 1.5504 0.4992 3.4224 0.7536 4.9104 1.6512 c 3.3552 2.0208 3.2784 6.0624 -0.0384 8.1744 c -2.9136 1.872 -6.0144 1.9728 -9.1776 0.6096 c -2.0784 -0.8976 -3.5712 -2.4096 -3.5664 -4.704 c 0.0048 -2.2944 1.4496 -3.8976 3.5808 -4.68 c 1.2864 -0.48 2.6736 -0.6624 4.2912 -1.0512 Z m 3.6432 5.736 c -3.7056 -2.688 -4.9296 -2.6256 -7.4928 0.1824 c 3.0528 2.16 4.176 2.16 7.4928 -0.1824 Z M 409.962 885.983 c -1.5024 -0.4368 -3.216 -0.6432 -4.6224 -1.4016 c -3.8496 -2.1168 -3.8256 -6.4512 -0.0192 -8.616 c 2.8416 -1.6176 5.8224 -1.68 8.8272 -0.3984 c 2.0736 0.888 3.5376 2.3376 3.5424 4.6992 c 0.0048 2.3472 -1.3776 3.9024 -3.5184 4.68 c -1.2912 0.4704 -2.6688 0.672 -4.2096 1.0368 Z m 4.0416 -5.808 c -3.7296 -2.3904 -5.0496 -2.3136 -7.4784 0.2448 c 3.2256 2.5104 4.032 2.5008 7.4784 -0.2448 Z M 447.675 894.426 c -1.6752 -0.6336 -3.648 -1.0176 -5.1888 -2.0448 c -2.9472 -1.9632 -2.8656 -5.6448 0.0672 -7.6704 c 3.1248 -2.1456 6.528 -2.1456 9.91678 -0.6096 c 1.9056 0.864 3.1296 2.3904 3.1008 4.5552 c -0.0336 2.1648 -1.2576 3.7008 -3.2112 4.4736 c -1.3872 0.5664 -2.8992 0.8064 -4.6848 1.296 Z m 4.0032 -5.88 c -3.2256 -2.616 -4.9248 -2.544 -7.2672 0.2976 c 3.48 2.3856 4.3296 2.3568 7.2672 -0.2976 Z" fill="#2c2c2c" p-id="13587"></path></svg>