<?xml version="1.0" standalone="no"?><!DOCTYPE svg PUBLIC "-//W3C//DTD SVG 1.1//EN" "http://www.w3.org/Graphics/SVG/1.1/DTD/svg11.dtd"><svg t="1575459725696" class="icon" viewBox="0 0 1024 1024" version="1.1" xmlns="http://www.w3.org/2000/svg" p-id="14487" xmlns:xlink="http://www.w3.org/1999/xlink" width="200" height="200"><defs><style type="text/css"></style></defs><path d="M965.872 330.095L801.712 86.488a31.997 31.997 0 0 0-26.528-14.106h-525.31a32.017 32.017 0 0 0-26.526 14.106L59.203 330.095c-7.712 11.39-7.246 26.419 1.147 37.323l426.791 556.5a32.025 32.025 0 0 0 25.397 12.519 32.05 32.05 0 0 0 25.396-12.519l426.79-556.5c8.376-10.903 8.826-25.933 1.148-37.323z m-326.28 37.055L512.538 831.713 385.465 367.15h254.127zM394.935 328.77L512.538 140.59 630.122 328.77H394.935z m160.218-192.421H739.6l-77.55 171.094-106.896-171.094zM363.011 307.443l-77.553-171.094h184.466L363.01 307.443z m96.26 474.985L140.755 367.151h204.912L459.27 782.428z m220.12-415.278h204.912L565.808 782.428 679.391 367.15z m208.445-38.381H694.528l77.732-171.49 115.576 171.49zM252.798 157.28l77.732 171.49H137.22l115.577-171.49z" p-id="14488"></path></svg>